# Blender v2.93.1 OBJ File: 'Mars Angled Stump Side Table 30x30x45.blend'
# www.blender.org
mtllib Mars Angled Stump Side Table 30x30x45.mtl
o Mars_Angled_Stump_Side_Table_30x30x45_Plane
v -0.146000 0.000000 0.146000
v -0.146000 0.004000 0.150000
v -0.150000 0.004000 0.146000
v -0.146000 0.000304 0.147531
v -0.146000 0.001172 0.148828
v -0.147531 0.000304 0.146000
v -0.147569 0.000672 0.147569
v -0.147489 0.001375 0.148625
v -0.148309 0.001691 0.148309
v -0.147531 0.004000 0.149696
v -0.148828 0.004000 0.148828
v -0.146000 0.002469 0.149696
v -0.147569 0.002431 0.149328
v -0.148625 0.002511 0.148625
v -0.149696 0.002469 0.146000
v -0.148828 0.001172 0.146000
v -0.149696 0.004000 0.147531
v -0.149328 0.002431 0.147569
v -0.148625 0.001375 0.147489
v -0.004062 0.446000 0.000000
v -0.004000 0.450000 0.004000
v 0.000000 0.446000 0.004062
v -0.004048 0.447531 0.000304
v -0.004031 0.448828 0.001172
v -0.002508 0.446000 0.000309
v -0.002552 0.447477 0.000753
v -0.002581 0.448659 0.001347
v -0.001713 0.448300 0.001713
v -0.002469 0.449695 0.004014
v -0.001172 0.448828 0.004031
v -0.004014 0.449695 0.002469
v -0.002533 0.449253 0.002533
v -0.001347 0.448659 0.002581
v -0.000309 0.446000 0.002508
v -0.001190 0.446000 0.001190
v -0.000304 0.447531 0.004048
v -0.000753 0.447477 0.002552
v -0.001355 0.447439 0.001355
v -0.004067 0.446000 0.150000
v 0.000000 0.446000 0.146000
v -0.004000 0.450000 0.146000
v -0.002510 0.446000 0.149696
v -0.001191 0.446000 0.148828
v -0.004051 0.447531 0.149696
v -0.002554 0.447477 0.149253
v -0.001356 0.447439 0.148659
v -0.001714 0.448300 0.148300
v -0.000304 0.447531 0.146000
v -0.001172 0.448828 0.146000
v -0.000310 0.446000 0.147531
v -0.000753 0.447477 0.147477
v -0.001348 0.448659 0.147439
v -0.004015 0.449695 0.147531
v -0.004033 0.448828 0.148828
v -0.002469 0.449695 0.146000
v -0.002534 0.449253 0.147477
v -0.002582 0.448659 0.148659
v -0.150000 0.004000 0.083911
v -0.146000 0.003861 0.079877
v -0.146000 0.000000 0.084921
v -0.149696 0.003809 0.082405
v -0.148828 0.003715 0.081109
v -0.149696 0.002469 0.084143
v -0.149253 0.002429 0.082746
v -0.148659 0.002409 0.081609
v -0.148300 0.001625 0.082150
v -0.146000 0.002384 0.080581
v -0.146000 0.001131 0.081787
v -0.147531 0.003733 0.080221
v -0.147477 0.002386 0.081029
v -0.147439 0.001290 0.081901
v -0.147531 0.000304 0.084689
v -0.148828 0.001172 0.084416
v -0.146000 0.000294 0.083311
v -0.147477 0.000734 0.083183
v -0.148659 0.001309 0.083039
v -0.083911 0.004000 0.150000
v -0.084921 0.000000 0.146000
v -0.079877 0.003861 0.146000
v -0.084303 0.002491 0.149696
v -0.084632 0.001200 0.148828
v -0.082373 0.003968 0.149696
v -0.082735 0.002419 0.149328
v -0.083083 0.001371 0.148625
v -0.082178 0.001661 0.148309
v -0.083305 0.000273 0.146000
v -0.081779 0.001102 0.146000
v -0.084849 0.000326 0.147531
v -0.083179 0.000660 0.147569
v -0.081938 0.001331 0.147489
v -0.080189 0.003893 0.147531
v -0.081066 0.003931 0.148828
v -0.080576 0.002362 0.146000
v -0.080961 0.002358 0.147569
v -0.081651 0.002467 0.148625
v -0.146000 0.446000 0.150000
v -0.146000 0.450000 0.146000
v -0.150000 0.446000 0.146000
v -0.146000 0.447531 0.149696
v -0.146000 0.448828 0.148828
v -0.147531 0.446000 0.149696
v -0.147569 0.447569 0.149328
v -0.147489 0.448625 0.148625
v -0.148309 0.448309 0.148309
v -0.147531 0.449696 0.146000
v -0.148828 0.448828 0.146000
v -0.146000 0.449696 0.147531
v -0.147569 0.449328 0.147569
v -0.148625 0.448625 0.147489
v -0.149696 0.446000 0.147531
v -0.148828 0.446000 0.148828
v -0.149696 0.447531 0.146000
v -0.149328 0.447569 0.147569
v -0.148625 0.447490 0.148625
v -0.150000 0.446000 0.004067
v -0.146000 0.450000 0.004000
v -0.146000 0.446000 0.000000
v -0.149696 0.447531 0.004051
v -0.148828 0.448828 0.004033
v -0.149696 0.446000 0.002521
v -0.149328 0.447569 0.002466
v -0.148625 0.448625 0.002531
v -0.148309 0.448309 0.001705
v -0.146000 0.449696 0.002459
v -0.146000 0.448828 0.001158
v -0.147531 0.449696 0.004015
v -0.147569 0.449328 0.002437
v -0.147489 0.448625 0.001377
v -0.147531 0.446000 0.000320
v -0.148828 0.446000 0.001205
v -0.146000 0.447531 0.000294
v -0.147569 0.447569 0.000678
v -0.148625 0.447490 0.001396
v -0.083944 0.003861 0.079877
v -0.079877 0.003861 0.083944
v -0.084921 0.000000 0.084921
v -0.082467 0.003567 0.080266
v -0.081176 0.003464 0.081176
v -0.084168 0.002384 0.080581
v -0.082781 0.002303 0.081051
v -0.081645 0.002273 0.081645
v -0.082169 0.001558 0.082169
v -0.080581 0.002384 0.084168
v -0.081787 0.001131 0.084433
v -0.080266 0.003567 0.082467
v -0.081051 0.002303 0.082781
v -0.081909 0.001261 0.083054
v -0.084697 0.000294 0.083311
v -0.084433 0.001131 0.081787
v -0.083311 0.000294 0.084697
v -0.083188 0.000721 0.083188
v -0.083054 0.001261 0.081909
v -0.004065 0.299250 0.000000
v 0.000000 0.299250 0.004065
v -0.002509 0.299250 0.000309
v -0.001191 0.299250 0.001191
v -0.000309 0.299250 0.002509
v -0.146000 0.299250 0.000000
v -0.150000 0.299250 0.004069
v -0.147531 0.299250 0.000310
v -0.148828 0.299250 0.001192
v -0.149696 0.299250 0.002512
v -0.146000 0.299250 0.150000
v -0.150000 0.299250 0.146000
v -0.147531 0.299250 0.149696
v -0.148828 0.299250 0.148828
v -0.149696 0.299250 0.147531
v -0.004069 0.299250 0.150000
v 0.000000 0.299250 0.146000
v -0.002512 0.299250 0.149696
v -0.001192 0.299250 0.148828
v -0.000310 0.299250 0.147531
v 0.146000 0.000000 0.146000
v 0.150000 0.004000 0.146000
v 0.146000 0.004000 0.150000
v 0.147531 0.000304 0.146000
v 0.148828 0.001172 0.146000
v 0.146000 0.000304 0.147531
v 0.147569 0.000672 0.147569
v 0.148625 0.001375 0.147489
v 0.148309 0.001691 0.148309
v 0.149696 0.004000 0.147531
v 0.148828 0.004000 0.148828
v 0.149696 0.002469 0.146000
v 0.149328 0.002431 0.147569
v 0.148625 0.002511 0.148625
v 0.146000 0.002469 0.149696
v 0.146000 0.001172 0.148828
v 0.147531 0.004000 0.149696
v 0.147569 0.002431 0.149328
v 0.147489 0.001375 0.148625
v 0.004062 0.446000 0.000000
v 0.000000 0.446000 0.004062
v 0.004000 0.450000 0.004000
v 0.002508 0.446000 0.000309
v 0.001190 0.446000 0.001190
v 0.004048 0.447531 0.000304
v 0.002552 0.447477 0.000753
v 0.001355 0.447439 0.001355
v 0.001713 0.448300 0.001713
v 0.000304 0.447531 0.004048
v 0.001172 0.448828 0.004031
v 0.000309 0.446000 0.002508
v 0.000753 0.447477 0.002552
v 0.001347 0.448659 0.002581
v 0.004014 0.449695 0.002469
v 0.004031 0.448828 0.001172
v 0.002469 0.449695 0.004014
v 0.002533 0.449253 0.002533
v 0.002581 0.448659 0.001347
v 0.004067 0.446000 0.150000
v 0.004000 0.450000 0.146000
v 0.000000 0.446000 0.146000
v 0.004051 0.447531 0.149696
v 0.004033 0.448828 0.148828
v 0.002521 0.446000 0.149696
v 0.002466 0.447569 0.149328
v 0.002531 0.448625 0.148625
v 0.001705 0.448309 0.148309
v 0.002459 0.449696 0.146000
v 0.001158 0.448828 0.146000
v 0.004015 0.449696 0.147531
v 0.002437 0.449328 0.147569
v 0.001377 0.448625 0.147489
v 0.000320 0.446000 0.147531
v 0.001205 0.446000 0.148828
v 0.000294 0.447531 0.146000
v 0.000678 0.447569 0.147569
v 0.001396 0.447490 0.148625
v 0.150000 0.004000 0.083911
v 0.146000 0.000000 0.084921
v 0.146000 0.003861 0.079877
v 0.149696 0.002491 0.084303
v 0.148828 0.001200 0.084632
v 0.149696 0.003968 0.082373
v 0.149328 0.002419 0.082735
v 0.148625 0.001371 0.083083
v 0.148309 0.001661 0.082178
v 0.146000 0.000273 0.083305
v 0.146000 0.001102 0.081779
v 0.147531 0.000326 0.084849
v 0.147569 0.000660 0.083179
v 0.147489 0.001331 0.081938
v 0.147531 0.003893 0.080189
v 0.148828 0.003931 0.081066
v 0.146000 0.002362 0.080576
v 0.147569 0.002358 0.080961
v 0.148625 0.002467 0.081651
v 0.083911 0.004000 0.150000
v 0.079877 0.003861 0.146000
v 0.084921 0.000000 0.146000
v 0.082405 0.003809 0.149696
v 0.081109 0.003715 0.148828
v 0.084143 0.002469 0.149696
v 0.082746 0.002429 0.149253
v 0.081609 0.002409 0.148659
v 0.082150 0.001625 0.148300
v 0.080581 0.002384 0.146000
v 0.081787 0.001131 0.146000
v 0.080221 0.003733 0.147531
v 0.081029 0.002386 0.147477
v 0.081901 0.001290 0.147439
v 0.084689 0.000304 0.147531
v 0.084416 0.001172 0.148828
v 0.083311 0.000294 0.146000
v 0.083183 0.000734 0.147477
v 0.083039 0.001309 0.148659
v 0.146000 0.446000 0.150000
v 0.150000 0.446000 0.146000
v 0.146000 0.450000 0.146000
v 0.147531 0.446000 0.149696
v 0.148828 0.446000 0.148828
v 0.146000 0.447531 0.149696
v 0.147569 0.447569 0.149328
v 0.148625 0.447490 0.148625
v 0.148309 0.448309 0.148309
v 0.149696 0.447531 0.146000
v 0.148828 0.448828 0.146000
v 0.149696 0.446000 0.147531
v 0.149328 0.447569 0.147569
v 0.148625 0.448625 0.147489
v 0.146000 0.449696 0.147531
v 0.146000 0.448828 0.148828
v 0.147531 0.449696 0.146000
v 0.147569 0.449328 0.147569
v 0.147489 0.448625 0.148625
v 0.150000 0.446000 0.004067
v 0.146000 0.446000 0.000000
v 0.146000 0.450000 0.004000
v 0.149696 0.446000 0.002510
v 0.148828 0.446000 0.001191
v 0.149696 0.447531 0.004051
v 0.149253 0.447477 0.002554
v 0.148659 0.447439 0.001356
v 0.148300 0.448300 0.001714
v 0.146000 0.447531 0.000304
v 0.146000 0.448828 0.001172
v 0.147531 0.446000 0.000310
v 0.147477 0.447477 0.000753
v 0.147439 0.448659 0.001348
v 0.147531 0.449695 0.004015
v 0.148828 0.448828 0.004033
v 0.146000 0.449695 0.002469
v 0.147477 0.449253 0.002534
v 0.148659 0.448659 0.002582
v 0.083944 0.003861 0.079877
v 0.084921 0.000000 0.084921
v 0.079877 0.003861 0.083944
v 0.084168 0.002384 0.080581
v 0.084433 0.001131 0.081787
v 0.082467 0.003567 0.080266
v 0.082781 0.002303 0.081051
v 0.083054 0.001261 0.081909
v 0.082169 0.001558 0.082169
v 0.083311 0.000294 0.084697
v 0.081787 0.001131 0.084433
v 0.084697 0.000294 0.083311
v 0.083188 0.000721 0.083188
v 0.081909 0.001261 0.083054
v 0.080266 0.003567 0.082467
v 0.081176 0.003464 0.081176
v 0.080581 0.002384 0.084168
v 0.081051 0.002303 0.082781
v 0.081645 0.002273 0.081645
v 0.000000 0.299250 0.004065
v 0.004065 0.299250 0.000000
v 0.000309 0.299250 0.002509
v 0.001191 0.299250 0.001191
v 0.002509 0.299250 0.000309
v 0.150000 0.299250 0.004069
v 0.146000 0.299250 0.000000
v 0.149696 0.299250 0.002512
v 0.148828 0.299250 0.001192
v 0.147531 0.299250 0.000310
v 0.150000 0.299250 0.146000
v 0.146000 0.299250 0.150000
v 0.149696 0.299250 0.147531
v 0.148828 0.299250 0.148828
v 0.147531 0.299250 0.149696
v 0.000000 0.299250 0.146000
v 0.004069 0.299250 0.150000
v 0.000310 0.299250 0.147531
v 0.001192 0.299250 0.148828
v 0.002512 0.299250 0.149696
v -0.146000 0.000000 -0.146000
v -0.150000 0.004000 -0.146000
v -0.146000 0.004000 -0.150000
v -0.147531 0.000304 -0.146000
v -0.148828 0.001172 -0.146000
v -0.146000 0.000304 -0.147531
v -0.147569 0.000672 -0.147569
v -0.148625 0.001375 -0.147489
v -0.148309 0.001691 -0.148309
v -0.149696 0.004000 -0.147531
v -0.148828 0.004000 -0.148828
v -0.149696 0.002469 -0.146000
v -0.149328 0.002431 -0.147569
v -0.148625 0.002511 -0.148625
v -0.146000 0.002469 -0.149696
v -0.146000 0.001172 -0.148828
v -0.147531 0.004000 -0.149696
v -0.147569 0.002431 -0.149328
v -0.147489 0.001375 -0.148625
v -0.004062 0.446000 0.000000
v 0.000000 0.446000 -0.004062
v -0.004000 0.450000 -0.004000
v -0.002508 0.446000 -0.000309
v -0.001190 0.446000 -0.001190
v -0.004048 0.447531 -0.000304
v -0.002552 0.447477 -0.000753
v -0.001355 0.447439 -0.001355
v -0.001713 0.448300 -0.001713
v -0.000304 0.447531 -0.004048
v -0.001172 0.448828 -0.004031
v -0.000309 0.446000 -0.002508
v -0.000753 0.447477 -0.002552
v -0.001347 0.448659 -0.002581
v -0.004014 0.449695 -0.002469
v -0.004031 0.448828 -0.001172
v -0.002469 0.449695 -0.004014
v -0.002533 0.449253 -0.002533
v -0.002581 0.448659 -0.001347
v -0.004067 0.446000 -0.150000
v -0.004000 0.450000 -0.146000
v 0.000000 0.446000 -0.146000
v -0.004051 0.447531 -0.149696
v -0.004033 0.448828 -0.148828
v -0.002521 0.446000 -0.149696
v -0.002466 0.447569 -0.149328
v -0.002531 0.448625 -0.148625
v -0.001705 0.448309 -0.148309
v -0.002459 0.449696 -0.146000
v -0.001158 0.448828 -0.146000
v -0.004015 0.449696 -0.147531
v -0.002437 0.449328 -0.147569
v -0.001377 0.448625 -0.147489
v -0.000320 0.446000 -0.147531
v -0.001205 0.446000 -0.148828
v -0.000294 0.447531 -0.146000
v -0.000678 0.447569 -0.147569
v -0.001396 0.447490 -0.148625
v -0.150000 0.004000 -0.083911
v -0.146000 0.000000 -0.084921
v -0.146000 0.003861 -0.079877
v -0.149696 0.002491 -0.084303
v -0.148828 0.001200 -0.084632
v -0.149696 0.003968 -0.082373
v -0.149328 0.002419 -0.082735
v -0.148625 0.001371 -0.083083
v -0.148309 0.001661 -0.082178
v -0.146000 0.000273 -0.083305
v -0.146000 0.001102 -0.081779
v -0.147531 0.000326 -0.084849
v -0.147569 0.000660 -0.083179
v -0.147489 0.001331 -0.081938
v -0.147531 0.003893 -0.080189
v -0.148828 0.003931 -0.081066
v -0.146000 0.002362 -0.080576
v -0.147569 0.002358 -0.080961
v -0.148625 0.002467 -0.081651
v -0.083911 0.004000 -0.150000
v -0.079877 0.003861 -0.146000
v -0.084921 0.000000 -0.146000
v -0.082405 0.003809 -0.149696
v -0.081109 0.003715 -0.148828
v -0.084143 0.002469 -0.149696
v -0.082746 0.002429 -0.149253
v -0.081609 0.002409 -0.148659
v -0.082150 0.001625 -0.148300
v -0.080581 0.002384 -0.146000
v -0.081787 0.001131 -0.146000
v -0.080221 0.003733 -0.147531
v -0.081029 0.002386 -0.147477
v -0.081901 0.001290 -0.147439
v -0.084689 0.000304 -0.147531
v -0.084416 0.001172 -0.148828
v -0.083311 0.000294 -0.146000
v -0.083183 0.000734 -0.147477
v -0.083039 0.001309 -0.148659
v -0.146000 0.446000 -0.150000
v -0.150000 0.446000 -0.146000
v -0.146000 0.450000 -0.146000
v -0.147531 0.446000 -0.149696
v -0.148828 0.446000 -0.148828
v -0.146000 0.447531 -0.149696
v -0.147569 0.447569 -0.149328
v -0.148625 0.447490 -0.148625
v -0.148309 0.448309 -0.148309
v -0.149696 0.447531 -0.146000
v -0.148828 0.448828 -0.146000
v -0.149696 0.446000 -0.147531
v -0.149328 0.447569 -0.147569
v -0.148625 0.448625 -0.147489
v -0.146000 0.449696 -0.147531
v -0.146000 0.448828 -0.148828
v -0.147531 0.449696 -0.146000
v -0.147569 0.449328 -0.147569
v -0.147489 0.448625 -0.148625
v -0.150000 0.446000 -0.004067
v -0.146000 0.446000 0.000000
v -0.146000 0.450000 -0.004000
v -0.149696 0.446000 -0.002510
v -0.148828 0.446000 -0.001191
v -0.149696 0.447531 -0.004051
v -0.149253 0.447477 -0.002554
v -0.148659 0.447439 -0.001356
v -0.148300 0.448300 -0.001714
v -0.146000 0.447531 -0.000304
v -0.146000 0.448828 -0.001172
v -0.147531 0.446000 -0.000310
v -0.147477 0.447477 -0.000753
v -0.147439 0.448659 -0.001348
v -0.147531 0.449695 -0.004015
v -0.148828 0.448828 -0.004033
v -0.146000 0.449695 -0.002469
v -0.147477 0.449253 -0.002534
v -0.148659 0.448659 -0.002582
v -0.083944 0.003861 -0.079877
v -0.084921 0.000000 -0.084921
v -0.079877 0.003861 -0.083944
v -0.084168 0.002384 -0.080581
v -0.084433 0.001131 -0.081787
v -0.082467 0.003567 -0.080266
v -0.082781 0.002303 -0.081051
v -0.083054 0.001261 -0.081909
v -0.082169 0.001558 -0.082169
v -0.083311 0.000294 -0.084697
v -0.081787 0.001131 -0.084433
v -0.084697 0.000294 -0.083311
v -0.083188 0.000721 -0.083188
v -0.081909 0.001261 -0.083054
v -0.080266 0.003567 -0.082467
v -0.081176 0.003464 -0.081176
v -0.080581 0.002384 -0.084168
v -0.081051 0.002303 -0.082781
v -0.081645 0.002273 -0.081645
v 0.000000 0.299250 -0.004065
v -0.004065 0.299250 0.000000
v -0.000309 0.299250 -0.002509
v -0.001191 0.299250 -0.001191
v -0.002509 0.299250 -0.000309
v -0.150000 0.299250 -0.004069
v -0.146000 0.299250 0.000000
v -0.149696 0.299250 -0.002512
v -0.148828 0.299250 -0.001192
v -0.147531 0.299250 -0.000310
v -0.150000 0.299250 -0.146000
v -0.146000 0.299250 -0.150000
v -0.149696 0.299250 -0.147531
v -0.148828 0.299250 -0.148828
v -0.147531 0.299250 -0.149696
v 0.000000 0.299250 -0.146000
v -0.004069 0.299250 -0.150000
v -0.000310 0.299250 -0.147531
v -0.001192 0.299250 -0.148828
v -0.002512 0.299250 -0.149696
v 0.146000 0.000000 -0.146000
v 0.146000 0.004000 -0.150000
v 0.150000 0.004000 -0.146000
v 0.146000 0.000304 -0.147531
v 0.146000 0.001172 -0.148828
v 0.147531 0.000304 -0.146000
v 0.147569 0.000672 -0.147569
v 0.147489 0.001375 -0.148625
v 0.148309 0.001691 -0.148309
v 0.147531 0.004000 -0.149696
v 0.148828 0.004000 -0.148828
v 0.146000 0.002469 -0.149696
v 0.147569 0.002431 -0.149328
v 0.148625 0.002511 -0.148625
v 0.149696 0.002469 -0.146000
v 0.148828 0.001172 -0.146000
v 0.149696 0.004000 -0.147531
v 0.149328 0.002431 -0.147569
v 0.148625 0.001375 -0.147489
v 0.004062 0.446000 0.000000
v 0.004000 0.450000 -0.004000
v 0.000000 0.446000 -0.004062
v 0.004048 0.447531 -0.000304
v 0.004031 0.448828 -0.001172
v 0.002508 0.446000 -0.000309
v 0.002552 0.447477 -0.000753
v 0.002581 0.448659 -0.001347
v 0.001713 0.448300 -0.001713
v 0.002469 0.449695 -0.004014
v 0.001172 0.448828 -0.004031
v 0.004014 0.449695 -0.002469
v 0.002533 0.449253 -0.002533
v 0.001347 0.448659 -0.002581
v 0.000309 0.446000 -0.002508
v 0.001190 0.446000 -0.001190
v 0.000304 0.447531 -0.004048
v 0.000753 0.447477 -0.002552
v 0.001355 0.447439 -0.001355
v 0.004067 0.446000 -0.150000
v 0.000000 0.446000 -0.146000
v 0.004000 0.450000 -0.146000
v 0.002510 0.446000 -0.149696
v 0.001191 0.446000 -0.148828
v 0.004051 0.447531 -0.149696
v 0.002554 0.447477 -0.149253
v 0.001356 0.447439 -0.148659
v 0.001714 0.448300 -0.148300
v 0.000304 0.447531 -0.146000
v 0.001172 0.448828 -0.146000
v 0.000310 0.446000 -0.147531
v 0.000753 0.447477 -0.147477
v 0.001348 0.448659 -0.147439
v 0.004015 0.449695 -0.147531
v 0.004033 0.448828 -0.148828
v 0.002469 0.449695 -0.146000
v 0.002534 0.449253 -0.147477
v 0.002582 0.448659 -0.148659
v 0.150000 0.004000 -0.083911
v 0.146000 0.003861 -0.079877
v 0.146000 0.000000 -0.084921
v 0.149696 0.003809 -0.082405
v 0.148828 0.003715 -0.081109
v 0.149696 0.002469 -0.084143
v 0.149253 0.002429 -0.082746
v 0.148659 0.002409 -0.081609
v 0.148300 0.001625 -0.082150
v 0.146000 0.002384 -0.080581
v 0.146000 0.001131 -0.081787
v 0.147531 0.003733 -0.080221
v 0.147477 0.002386 -0.081029
v 0.147439 0.001290 -0.081901
v 0.147531 0.000304 -0.084689
v 0.148828 0.001172 -0.084416
v 0.146000 0.000294 -0.083311
v 0.147477 0.000734 -0.083183
v 0.148659 0.001309 -0.083039
v 0.083911 0.004000 -0.150000
v 0.084921 0.000000 -0.146000
v 0.079877 0.003861 -0.146000
v 0.084303 0.002491 -0.149696
v 0.084632 0.001200 -0.148828
v 0.082373 0.003968 -0.149696
v 0.082735 0.002419 -0.149328
v 0.083083 0.001371 -0.148625
v 0.082178 0.001661 -0.148309
v 0.083305 0.000273 -0.146000
v 0.081779 0.001102 -0.146000
v 0.084849 0.000326 -0.147531
v 0.083179 0.000660 -0.147569
v 0.081938 0.001331 -0.147489
v 0.080189 0.003893 -0.147531
v 0.081066 0.003931 -0.148828
v 0.080576 0.002362 -0.146000
v 0.080961 0.002358 -0.147569
v 0.081651 0.002467 -0.148625
v 0.146000 0.446000 -0.150000
v 0.146000 0.450000 -0.146000
v 0.150000 0.446000 -0.146000
v 0.146000 0.447531 -0.149696
v 0.146000 0.448828 -0.148828
v 0.147531 0.446000 -0.149696
v 0.147569 0.447569 -0.149328
v 0.147489 0.448625 -0.148625
v 0.148309 0.448309 -0.148309
v 0.147531 0.449696 -0.146000
v 0.148828 0.448828 -0.146000
v 0.146000 0.449696 -0.147531
v 0.147569 0.449328 -0.147569
v 0.148625 0.448625 -0.147489
v 0.149696 0.446000 -0.147531
v 0.148828 0.446000 -0.148828
v 0.149696 0.447531 -0.146000
v 0.149328 0.447569 -0.147569
v 0.148625 0.447490 -0.148625
v 0.150000 0.446000 -0.004067
v 0.146000 0.450000 -0.004000
v 0.146000 0.446000 0.000000
v 0.149696 0.447531 -0.004051
v 0.148828 0.448828 -0.004033
v 0.149696 0.446000 -0.002521
v 0.149328 0.447569 -0.002466
v 0.148625 0.448625 -0.002531
v 0.148309 0.448309 -0.001705
v 0.146000 0.449696 -0.002459
v 0.146000 0.448828 -0.001158
v 0.147531 0.449696 -0.004015
v 0.147569 0.449328 -0.002437
v 0.147489 0.448625 -0.001377
v 0.147531 0.446000 -0.000320
v 0.148828 0.446000 -0.001205
v 0.146000 0.447531 -0.000294
v 0.147569 0.447569 -0.000678
v 0.148625 0.447490 -0.001396
v 0.083944 0.003861 -0.079877
v 0.079877 0.003861 -0.083944
v 0.084921 0.000000 -0.084921
v 0.082467 0.003567 -0.080266
v 0.081176 0.003464 -0.081176
v 0.084168 0.002384 -0.080581
v 0.082781 0.002303 -0.081051
v 0.081645 0.002273 -0.081645
v 0.082169 0.001558 -0.082169
v 0.080581 0.002384 -0.084168
v 0.081787 0.001131 -0.084433
v 0.080266 0.003567 -0.082467
v 0.081051 0.002303 -0.082781
v 0.081909 0.001261 -0.083054
v 0.084697 0.000294 -0.083311
v 0.084433 0.001131 -0.081787
v 0.083311 0.000294 -0.084697
v 0.083188 0.000721 -0.083188
v 0.083054 0.001261 -0.081909
v 0.004065 0.299250 0.000000
v 0.000000 0.299250 -0.004065
v 0.002509 0.299250 -0.000309
v 0.001191 0.299250 -0.001191
v 0.000309 0.299250 -0.002509
v 0.146000 0.299250 0.000000
v 0.150000 0.299250 -0.004069
v 0.147531 0.299250 -0.000310
v 0.148828 0.299250 -0.001192
v 0.149696 0.299250 -0.002512
v 0.146000 0.299250 -0.150000
v 0.150000 0.299250 -0.146000
v 0.147531 0.299250 -0.149696
v 0.148828 0.299250 -0.148828
v 0.149696 0.299250 -0.147531
v 0.004069 0.299250 -0.150000
v 0.000000 0.299250 -0.146000
v 0.002512 0.299250 -0.149696
v 0.001192 0.299250 -0.148828
v 0.000310 0.299250 -0.147531
vt 0.753333 0.623026
vt 0.871609 0.623026
vt 0.871611 0.745054
vt 0.753333 0.745054
vt 0.194954 0.003268
vt 0.246667 0.003268
vt 0.246667 0.253266
vt 0.128387 0.253266
vt 0.496667 0.874476
vt 0.378333 0.874476
vt 0.378333 0.756143
vt 0.496667 0.756143
vt 0.003333 0.253266
vt 0.121613 0.253266
vt 0.121615 0.375293
vt 0.003333 0.375293
vt 0.805074 0.003326
vt 0.871609 0.248836
vt 0.753333 0.248836
vt 0.753333 0.003326
vt 0.246667 0.375293
vt 0.128385 0.375293
vt 0.253391 0.627456
vt 0.371667 0.627456
vt 0.371667 0.749483
vt 0.253389 0.749484
vt 0.753333 0.377516
vt 0.805074 0.377516
vt 0.685899 0.807042
vt 0.685899 0.756143
vt 0.736799 0.756143
vt 0.736799 0.807042
vt 0.003333 0.003268
vt 0.055046 0.003268
vt 0.621667 0.627456
vt 0.621667 0.749483
vt 0.503389 0.749483
vt 0.503391 0.627456
vt 0.055046 0.381888
vt 0.121613 0.631886
vt 0.003333 0.631886
vt 0.003333 0.381888
vt 0.253333 0.874476
vt 0.253333 0.756143
vt 0.371667 0.756143
vt 0.371667 0.874476
vt 0.246667 0.631886
vt 0.246667 0.753913
vt 0.128385 0.753913
vt 0.128387 0.631886
vt 0.930074 0.377516
vt 0.996609 0.623026
vt 0.878333 0.623026
vt 0.878333 0.377516
vt 0.121615 0.753913
vt 0.003333 0.753913
vt 0.871611 0.370864
vt 0.753333 0.370864
vt 0.621667 0.381946
vt 0.569926 0.381946
vt 0.060899 0.811472
vt 0.060899 0.760573
vt 0.111798 0.760573
vt 0.111798 0.811472
vt 0.246667 0.381888
vt 0.194954 0.381888
vt 0.746667 0.627456
vt 0.746667 0.749483
vt 0.628389 0.749483
vt 0.628391 0.627456
vt 0.555047 0.003268
vt 0.621613 0.253266
vt 0.503333 0.253266
vt 0.503333 0.003268
vt 0.871667 0.751713
vt 0.871667 0.870047
vt 0.753333 0.870047
vt 0.753333 0.751714
vt 0.746667 0.253266
vt 0.746667 0.375293
vt 0.628385 0.375293
vt 0.628387 0.253266
vt 0.444926 0.381946
vt 0.496667 0.381946
vt 0.496667 0.627456
vt 0.378391 0.627456
vt 0.621615 0.375293
vt 0.503333 0.375293
vt 0.996611 0.745054
vt 0.878333 0.745054
vt 0.746667 0.381946
vt 0.694926 0.381946
vt 0.054233 0.760573
vt 0.054233 0.811472
vt 0.003333 0.811472
vt 0.003333 0.760573
vt 0.746667 0.003268
vt 0.694954 0.003268
vt 0.878333 0.248836
vt 0.996609 0.248836
vt 0.996611 0.370864
vt 0.878333 0.370864
vt 0.444954 0.003268
vt 0.496667 0.003268
vt 0.496667 0.253266
vt 0.378387 0.253266
vt 0.503333 0.756143
vt 0.621667 0.756143
vt 0.621667 0.874476
vt 0.503333 0.874476
vt 0.253333 0.253266
vt 0.371613 0.253266
vt 0.371615 0.375293
vt 0.253333 0.375293
vt 0.496667 0.375293
vt 0.378385 0.375293
vt 0.496667 0.749483
vt 0.378389 0.749484
vt 0.878333 0.003326
vt 0.930074 0.003326
vt 0.679233 0.756143
vt 0.679233 0.807042
vt 0.628333 0.807042
vt 0.628333 0.756143
vt 0.253333 0.003268
vt 0.305047 0.003268
vt 0.685899 0.808318
vt 0.684592 0.808350
vt 0.684624 0.807042
vt 0.685899 0.810376
vt 0.684658 0.810376
vt 0.682566 0.808283
vt 0.682566 0.807042
vt 0.683975 0.810376
vt 0.752058 0.377516
vt 0.752026 0.376211
vt 0.753333 0.376243
vt 0.750000 0.377516
vt 0.750000 0.376278
vt 0.752092 0.374190
vt 0.753333 0.374190
vt 0.750000 0.375596
vt 0.371667 0.381946
vt 0.371667 0.380673
vt 0.372974 0.380641
vt 0.372942 0.381946
vt 0.371667 0.378620
vt 0.372908 0.378620
vt 0.375000 0.380707
vt 0.375000 0.381946
vt 0.373591 0.378620
vt 0.128373 0.376566
vt 0.127127 0.376521
vt 0.127090 0.375293
vt 0.128359 0.378620
vt 0.127151 0.378620
vt 0.125000 0.376490
vt 0.125000 0.375293
vt 0.126427 0.378620
vt 0.377058 0.756155
vt 0.377111 0.754921
vt 0.378345 0.754867
vt 0.375000 0.756169
vt 0.375000 0.754960
vt 0.377151 0.752810
vt 0.378359 0.752810
vt 0.375000 0.754237
vt 0.122910 0.375293
vt 0.122873 0.376521
vt 0.121627 0.376566
vt 0.122849 0.378620
vt 0.121641 0.378620
vt 0.125000 0.377206
vt 0.872908 0.745054
vt 0.872871 0.746282
vt 0.871624 0.746327
vt 0.875000 0.745054
vt 0.875000 0.746251
vt 0.872848 0.748380
vt 0.871639 0.748380
vt 0.875000 0.746967
vt 0.003333 0.376566
vt 0.002103 0.376521
vt 0.002058 0.375293
vt 0.003333 0.378620
vt 0.002134 0.378620
vt 0.000000 0.376490
vt 0.000000 0.375293
vt 0.001416 0.378620
vt 0.378346 0.875752
vt 0.377112 0.875707
vt 0.377058 0.874476
vt 0.378361 0.877810
vt 0.377152 0.877810
vt 0.375000 0.875676
vt 0.375000 0.874476
vt 0.376428 0.877810
vt 0.319926 0.381946
vt 0.318671 0.381787
vt 0.318955 0.380639
vt 0.320119 0.380673
vt 0.316665 0.381459
vt 0.316967 0.380342
vt 0.319199 0.378620
vt 0.320347 0.378620
vt 0.317163 0.379622
vt 0.246667 0.001952
vt 0.247897 0.001859
vt 0.247942 0.003094
vt 0.246667 0.000000
vt 0.247866 0.000000
vt 0.250000 0.001753
vt 0.250000 0.002890
vt 0.248584 0.000000
vt 0.684624 0.755950
vt 0.684669 0.754694
vt 0.685899 0.754801
vt 0.682566 0.755722
vt 0.682566 0.754575
vt 0.684700 0.752810
vt 0.685899 0.752810
vt 0.682566 0.753834
vt 0.804748 0.376261
vt 0.806054 0.376202
vt 0.806356 0.377490
vt 0.804473 0.374190
vt 0.805764 0.374190
vt 0.808043 0.375949
vt 0.808383 0.377206
vt 0.806519 0.374190
vt 0.738145 0.807042
vt 0.738250 0.808350
vt 0.736858 0.808318
vt 0.740132 0.807042
vt 0.740132 0.808283
vt 0.738330 0.810376
vt 0.737039 0.810376
vt 0.740132 0.808967
vt 0.002058 0.003226
vt 0.002026 0.001851
vt 0.003333 0.001937
vt 0.000000 0.003069
vt 0.000000 0.001790
vt 0.002092 0.000000
vt 0.003333 0.000000
vt 0.000000 0.001042
vt 0.753333 0.746327
vt 0.752026 0.746359
vt 0.752058 0.745054
vt 0.753333 0.748380
vt 0.752092 0.748380
vt 0.750000 0.746293
vt 0.750000 0.745054
vt 0.751409 0.748380
vt 0.497942 0.874476
vt 0.497974 0.875784
vt 0.496667 0.875752
vt 0.500000 0.874476
vt 0.500000 0.875718
vt 0.497908 0.877810
vt 0.496667 0.877810
vt 0.500000 0.876401
vt 0.372942 0.749484
vt 0.372974 0.750788
vt 0.371667 0.750756
vt 0.375000 0.749484
vt 0.375000 0.750722
vt 0.372908 0.752810
vt 0.371667 0.752810
vt 0.375000 0.751404
vt 0.253376 0.750756
vt 0.252055 0.750788
vt 0.252101 0.749484
vt 0.253361 0.752810
vt 0.252110 0.752810
vt 0.250000 0.750722
vt 0.250000 0.749484
vt 0.251421 0.752810
vt 0.496667 0.754859
vt 0.497974 0.754840
vt 0.497942 0.756156
vt 0.496667 0.752810
vt 0.497908 0.752810
vt 0.500000 0.754919
vt 0.500000 0.756171
vt 0.498591 0.752810
vt 0.247942 0.375294
vt 0.247974 0.376598
vt 0.246667 0.376566
vt 0.250000 0.375293
vt 0.250000 0.376532
vt 0.247908 0.378620
vt 0.246667 0.378620
vt 0.250000 0.377214
vt 0.193723 0.002953
vt 0.193984 0.001789
vt 0.195140 0.001952
vt 0.191780 0.002456
vt 0.192064 0.001390
vt 0.194212 0.000000
vt 0.195360 0.000000
vt 0.192260 0.000652
vt 0.054860 0.001952
vt 0.056016 0.001789
vt 0.056277 0.002953
vt 0.054640 0.000000
vt 0.055788 0.000000
vt 0.057936 0.001390
vt 0.058220 0.002456
vt 0.056526 0.000000
vt 0.736985 0.754801
vt 0.738243 0.754699
vt 0.738140 0.755956
vt 0.737205 0.752810
vt 0.738354 0.752810
vt 0.740132 0.754587
vt 0.740132 0.755736
vt 0.739092 0.752810
vt 0.060899 0.812747
vt 0.059592 0.812779
vt 0.059624 0.811472
vt 0.060899 0.814805
vt 0.059658 0.814805
vt 0.057566 0.812713
vt 0.057566 0.811472
vt 0.058975 0.814805
vt 0.752058 0.003326
vt 0.752026 0.002021
vt 0.753333 0.002053
vt 0.750000 0.003326
vt 0.750000 0.002088
vt 0.752092 0.000000
vt 0.753333 0.000000
vt 0.750000 0.001406
vt 0.621667 0.380673
vt 0.622974 0.380641
vt 0.622942 0.381946
vt 0.621667 0.378620
vt 0.622908 0.378620
vt 0.625000 0.380707
vt 0.625000 0.381946
vt 0.623591 0.378620
vt 0.122910 0.753913
vt 0.122873 0.755141
vt 0.121627 0.755186
vt 0.125000 0.753913
vt 0.125000 0.755110
vt 0.122849 0.757239
vt 0.121641 0.757239
vt 0.125000 0.755826
vt 0.128373 0.755186
vt 0.127127 0.755141
vt 0.127090 0.753913
vt 0.128359 0.757239
vt 0.127151 0.757239
vt 0.126427 0.757239
vt 0.371655 0.754867
vt 0.372889 0.754921
vt 0.372942 0.756155
vt 0.371641 0.752810
vt 0.372849 0.752810
vt 0.375000 0.754960
vt 0.375000 0.756169
vt 0.373573 0.752810
vt 0.503376 0.750756
vt 0.502055 0.750788
vt 0.502101 0.749484
vt 0.503361 0.752810
vt 0.502110 0.752810
vt 0.500000 0.750722
vt 0.500000 0.749484
vt 0.501421 0.752810
vt 0.372951 0.874476
vt 0.372970 0.875784
vt 0.371654 0.875752
vt 0.375000 0.874476
vt 0.375000 0.875718
vt 0.372890 0.877810
vt 0.371639 0.877810
vt 0.375000 0.876401
vt 0.247942 0.753913
vt 0.247974 0.755218
vt 0.246667 0.755186
vt 0.250000 0.753913
vt 0.250000 0.755152
vt 0.247908 0.757239
vt 0.246667 0.757239
vt 0.250000 0.755833
vt 0.804748 0.002071
vt 0.806054 0.002012
vt 0.806356 0.003300
vt 0.804473 0.000000
vt 0.805764 0.000000
vt 0.808043 0.001759
vt 0.808383 0.003015
vt 0.806519 0.000000
vt 0.113145 0.811472
vt 0.113250 0.812779
vt 0.111858 0.812747
vt 0.115132 0.811472
vt 0.115132 0.812713
vt 0.113330 0.814805
vt 0.112039 0.814805
vt 0.115132 0.813396
vt 0.002058 0.381846
vt 0.002026 0.380471
vt 0.003333 0.380556
vt 0.000000 0.381689
vt 0.000000 0.380409
vt 0.002092 0.378620
vt 0.003333 0.378620
vt 0.000000 0.379662
vt 0.568671 0.381787
vt 0.568955 0.380639
vt 0.570119 0.380673
vt 0.566665 0.381459
vt 0.566967 0.380342
vt 0.569199 0.378620
vt 0.570347 0.378620
vt 0.567163 0.379622
vt 0.246667 0.380572
vt 0.247897 0.380478
vt 0.247942 0.381713
vt 0.246667 0.378620
vt 0.247866 0.378620
vt 0.250000 0.380373
vt 0.250000 0.381509
vt 0.248584 0.378620
vt 0.059624 0.760379
vt 0.059669 0.759124
vt 0.060899 0.759231
vt 0.057566 0.760152
vt 0.057566 0.759004
vt 0.059700 0.757239
vt 0.060899 0.757239
vt 0.057566 0.758263
vt 0.622942 0.749484
vt 0.622974 0.750788
vt 0.621667 0.750756
vt 0.625000 0.749484
vt 0.625000 0.750722
vt 0.622908 0.752810
vt 0.621667 0.752810
vt 0.625000 0.751404
vt 0.753333 0.372137
vt 0.752026 0.372169
vt 0.752058 0.370864
vt 0.753333 0.374190
vt 0.752092 0.374190
vt 0.750000 0.372103
vt 0.750000 0.370864
vt 0.751409 0.374190
vt 0.253333 0.875752
vt 0.252026 0.875784
vt 0.252058 0.874476
vt 0.253333 0.877810
vt 0.252092 0.877810
vt 0.250000 0.875718
vt 0.250000 0.874476
vt 0.251409 0.877810
vt 0.872908 0.370864
vt 0.872871 0.372092
vt 0.871624 0.372137
vt 0.875000 0.370864
vt 0.875000 0.372061
vt 0.872848 0.374190
vt 0.871639 0.374190
vt 0.875000 0.372777
vt 0.003333 0.755186
vt 0.002103 0.755141
vt 0.002058 0.753913
vt 0.003333 0.757239
vt 0.002134 0.757239
vt 0.000000 0.755110
vt 0.000000 0.753913
vt 0.001416 0.757239
vt 0.252058 0.756156
vt 0.252103 0.754921
vt 0.253333 0.754867
vt 0.250000 0.756171
vt 0.250000 0.754961
vt 0.252134 0.752810
vt 0.253333 0.752810
vt 0.250000 0.754238
vt 0.054860 0.380572
vt 0.056016 0.380408
vt 0.056277 0.381573
vt 0.054640 0.378620
vt 0.055788 0.378620
vt 0.057936 0.380009
vt 0.058220 0.381076
vt 0.056526 0.378620
vt 0.111985 0.759231
vt 0.113243 0.759128
vt 0.113140 0.760386
vt 0.112205 0.757239
vt 0.113354 0.757239
vt 0.115132 0.759017
vt 0.115132 0.760166
vt 0.114092 0.757239
vt 0.193723 0.381573
vt 0.193984 0.380408
vt 0.195140 0.380572
vt 0.191780 0.381075
vt 0.192064 0.380009
vt 0.194212 0.378620
vt 0.195360 0.378620
vt 0.192260 0.379272
vt 0.054233 0.759297
vt 0.055540 0.759265
vt 0.055508 0.760572
vt 0.054233 0.757239
vt 0.055474 0.757239
vt 0.057566 0.759331
vt 0.057566 0.760573
vt 0.056157 0.757239
vt 0.877058 0.377516
vt 0.877026 0.376211
vt 0.878333 0.376243
vt 0.875000 0.377516
vt 0.875000 0.376278
vt 0.877092 0.374190
vt 0.878333 0.374190
vt 0.875000 0.375596
vt 0.746667 0.380673
vt 0.747974 0.380641
vt 0.747942 0.381946
vt 0.746667 0.378620
vt 0.747908 0.378620
vt 0.750000 0.380707
vt 0.750000 0.381946
vt 0.748591 0.378620
vt 0.622910 0.375293
vt 0.622873 0.376521
vt 0.621627 0.376566
vt 0.625000 0.375293
vt 0.625000 0.376490
vt 0.622849 0.378620
vt 0.621641 0.378620
vt 0.625000 0.377206
vt 0.628373 0.376566
vt 0.627127 0.376521
vt 0.627090 0.375293
vt 0.628359 0.378620
vt 0.627151 0.378620
vt 0.626427 0.378620
vt 0.753345 0.871322
vt 0.752111 0.871269
vt 0.752058 0.870035
vt 0.753359 0.873380
vt 0.752151 0.873380
vt 0.750000 0.871229
vt 0.750000 0.870021
vt 0.751427 0.873380
vt 0.628376 0.750756
vt 0.627055 0.750788
vt 0.627101 0.749484
vt 0.628361 0.752810
vt 0.627110 0.752810
vt 0.625000 0.750722
vt 0.625000 0.749484
vt 0.626421 0.752810
vt 0.752049 0.751714
vt 0.752030 0.750406
vt 0.753346 0.750438
vt 0.750000 0.751714
vt 0.750000 0.750472
vt 0.752110 0.748380
vt 0.753361 0.748380
vt 0.750000 0.749789
vt 0.747942 0.375294
vt 0.747974 0.376598
vt 0.746667 0.376566
vt 0.750000 0.375293
vt 0.750000 0.376532
vt 0.747908 0.378620
vt 0.746667 0.378620
vt 0.750000 0.377214
vt 0.929748 0.376261
vt 0.931054 0.376202
vt 0.931356 0.377490
vt 0.929473 0.374190
vt 0.930764 0.374190
vt 0.933043 0.375949
vt 0.933383 0.377206
vt 0.931519 0.374190
vt 0.001987 0.760572
vt 0.001882 0.759265
vt 0.003274 0.759297
vt 0.000000 0.760573
vt 0.000000 0.759331
vt 0.001802 0.757239
vt 0.003093 0.757239
vt 0.000000 0.758648
vt 0.502058 0.003226
vt 0.502026 0.001851
vt 0.503333 0.001937
vt 0.500000 0.003069
vt 0.500000 0.001790
vt 0.502092 0.000000
vt 0.503333 0.000000
vt 0.500000 0.001042
vt 0.693671 0.381787
vt 0.693955 0.380639
vt 0.695119 0.380673
vt 0.691665 0.381459
vt 0.691967 0.380342
vt 0.694199 0.378620
vt 0.695347 0.378620
vt 0.692163 0.379622
vt 0.746667 0.001952
vt 0.747897 0.001859
vt 0.747942 0.003094
vt 0.746667 0.000000
vt 0.747866 0.000000
vt 0.750000 0.001753
vt 0.750000 0.002890
vt 0.748584 0.000000
vt 0.055508 0.811665
vt 0.055463 0.812920
vt 0.054233 0.812814
vt 0.057566 0.811892
vt 0.057566 0.813040
vt 0.055432 0.814805
vt 0.054233 0.814805
vt 0.057566 0.813781
vt 0.747942 0.749484
vt 0.747974 0.750788
vt 0.746667 0.750756
vt 0.750000 0.749484
vt 0.750000 0.750722
vt 0.747908 0.752810
vt 0.746667 0.752810
vt 0.750000 0.751404
vt 0.878333 0.746327
vt 0.877026 0.746359
vt 0.877058 0.745054
vt 0.878333 0.748380
vt 0.877092 0.748380
vt 0.875000 0.746293
vt 0.875000 0.745054
vt 0.876409 0.748380
vt 0.871667 0.750438
vt 0.872974 0.750406
vt 0.872942 0.751713
vt 0.871667 0.748380
vt 0.872908 0.748380
vt 0.875000 0.750472
vt 0.875000 0.751714
vt 0.873591 0.748380
vt 0.997908 0.745054
vt 0.997871 0.746282
vt 0.996624 0.746327
vt 1.000000 0.745054
vt 1.000000 0.746251
vt 0.997848 0.748380
vt 0.996639 0.748380
vt 1.000000 0.746967
vt 0.503333 0.376566
vt 0.502103 0.376522
vt 0.502058 0.375293
vt 0.503333 0.378620
vt 0.502134 0.378620
vt 0.500000 0.376490
vt 0.500000 0.375293
vt 0.501416 0.378620
vt 0.872942 0.870034
vt 0.872897 0.871269
vt 0.871667 0.871323
vt 0.875000 0.870019
vt 0.875000 0.871228
vt 0.872866 0.873380
vt 0.871667 0.873380
vt 0.875000 0.871952
vt 0.554860 0.001952
vt 0.556016 0.001789
vt 0.556277 0.002953
vt 0.554640 0.000000
vt 0.555788 0.000000
vt 0.557936 0.001390
vt 0.558220 0.002456
vt 0.556526 0.000000
vt 0.003147 0.812814
vt 0.001889 0.812916
vt 0.001991 0.811658
vt 0.002926 0.814805
vt 0.001778 0.814805
vt 0.000000 0.813027
vt 0.000000 0.811879
vt 0.001040 0.814805
vt 0.693723 0.002953
vt 0.693984 0.001789
vt 0.695140 0.001952
vt 0.691780 0.002456
vt 0.692064 0.001390
vt 0.694212 0.000000
vt 0.695361 0.000000
vt 0.692261 0.000652
vt 0.679233 0.754867
vt 0.680540 0.754835
vt 0.680508 0.756143
vt 0.679233 0.752810
vt 0.680474 0.752810
vt 0.682566 0.754902
vt 0.682566 0.756143
vt 0.681157 0.752810
vt 0.877058 0.003326
vt 0.877026 0.002021
vt 0.878333 0.002053
vt 0.875000 0.003326
vt 0.875000 0.002088
vt 0.877092 0.000000
vt 0.878333 0.000000
vt 0.875000 0.001406
vt 0.496667 0.380673
vt 0.497974 0.380641
vt 0.497942 0.381946
vt 0.496667 0.378620
vt 0.497908 0.378620
vt 0.500000 0.380707
vt 0.500000 0.381946
vt 0.498591 0.378620
vt 0.378373 0.376566
vt 0.377127 0.376521
vt 0.377090 0.375293
vt 0.378359 0.378620
vt 0.377151 0.378620
vt 0.375000 0.376490
vt 0.375000 0.375293
vt 0.376427 0.378620
vt 0.622942 0.874464
vt 0.622889 0.875699
vt 0.621655 0.875752
vt 0.625000 0.874450
vt 0.625000 0.875659
vt 0.622849 0.877810
vt 0.621641 0.877810
vt 0.625000 0.876382
vt 0.372910 0.375293
vt 0.372873 0.376521
vt 0.371627 0.376566
vt 0.372849 0.378620
vt 0.371641 0.378620
vt 0.375000 0.377206
vt 0.997908 0.370864
vt 0.997871 0.372092
vt 0.996624 0.372137
vt 1.000000 0.370864
vt 1.000000 0.372061
vt 0.997848 0.374190
vt 0.996639 0.374190
vt 1.000000 0.372777
vt 0.253333 0.376566
vt 0.252103 0.376521
vt 0.252058 0.375293
vt 0.253333 0.378620
vt 0.252134 0.378620
vt 0.250000 0.376490
vt 0.250000 0.375293
vt 0.251416 0.378620
vt 0.621654 0.754867
vt 0.622888 0.754912
vt 0.622942 0.756143
vt 0.621639 0.752810
vt 0.622848 0.752810
vt 0.625000 0.754944
vt 0.625000 0.756143
vt 0.623572 0.752810
vt 0.443671 0.381787
vt 0.443955 0.380639
vt 0.445119 0.380673
vt 0.441665 0.381459
vt 0.441967 0.380342
vt 0.444199 0.378620
vt 0.445347 0.378620
vt 0.442163 0.379622
vt 0.496667 0.001952
vt 0.497897 0.001859
vt 0.497942 0.003094
vt 0.496667 0.000000
vt 0.497866 0.000000
vt 0.500000 0.001753
vt 0.500000 0.002890
vt 0.498584 0.000000
vt 0.680508 0.807235
vt 0.680463 0.808491
vt 0.679233 0.808384
vt 0.682566 0.807463
vt 0.682566 0.808610
vt 0.680432 0.810376
vt 0.679233 0.810375
vt 0.682566 0.809351
vt 0.929748 0.002071
vt 0.931054 0.002012
vt 0.931356 0.003300
vt 0.929473 0.000000
vt 0.930764 0.000000
vt 0.933043 0.001759
vt 0.933383 0.003015
vt 0.931519 0.000000
vt 0.626987 0.756143
vt 0.626882 0.754835
vt 0.628274 0.754867
vt 0.625000 0.756143
vt 0.625000 0.754902
vt 0.626802 0.752810
vt 0.628093 0.752810
vt 0.625000 0.754218
vt 0.252058 0.003226
vt 0.252026 0.001851
vt 0.253333 0.001937
vt 0.250000 0.003069
vt 0.250000 0.001790
vt 0.252092 0.000000
vt 0.253333 0.000000
vt 0.250000 0.001042
vt 0.878333 0.372137
vt 0.877026 0.372169
vt 0.877058 0.370864
vt 0.878333 0.374190
vt 0.877092 0.374190
vt 0.875000 0.372103
vt 0.875000 0.370864
vt 0.876409 0.374190
vt 0.502058 0.756143
vt 0.502026 0.754835
vt 0.503333 0.754867
vt 0.500000 0.756143
vt 0.500000 0.754902
vt 0.502092 0.752810
vt 0.503333 0.752810
vt 0.500000 0.754218
vt 0.497942 0.749484
vt 0.497974 0.750788
vt 0.496667 0.750756
vt 0.500000 0.749484
vt 0.500000 0.750722
vt 0.497908 0.752810
vt 0.496667 0.752810
vt 0.500000 0.751404
vt 0.378376 0.750756
vt 0.377055 0.750788
vt 0.377101 0.749484
vt 0.378361 0.752810
vt 0.377110 0.752810
vt 0.375000 0.750722
vt 0.375000 0.749484
vt 0.376421 0.752810
vt 0.503333 0.875760
vt 0.502026 0.875779
vt 0.502058 0.874464
vt 0.503333 0.877810
vt 0.502092 0.877810
vt 0.500000 0.875700
vt 0.500000 0.874449
vt 0.501409 0.877810
vt 0.497942 0.375294
vt 0.497974 0.376598
vt 0.496667 0.376566
vt 0.500000 0.375293
vt 0.500000 0.376532
vt 0.497908 0.378620
vt 0.496667 0.378620
vt 0.500000 0.377214
vt 0.443723 0.002953
vt 0.443984 0.001789
vt 0.445140 0.001952
vt 0.441780 0.002456
vt 0.442064 0.001390
vt 0.444212 0.000000
vt 0.445361 0.000000
vt 0.442261 0.000652
vt 0.304860 0.001952
vt 0.306016 0.001789
vt 0.306277 0.002953
vt 0.304640 0.000000
vt 0.305788 0.000000
vt 0.307936 0.001390
vt 0.308220 0.002456
vt 0.306526 0.000000
vt 0.628147 0.808384
vt 0.626889 0.808486
vt 0.626992 0.807229
vt 0.627926 0.810376
vt 0.626778 0.810376
vt 0.625000 0.808598
vt 0.625000 0.807449
vt 0.626040 0.810376
vt 0.122909 0.253200
vt 0.124873 0.252791
vt 0.125127 0.252791
vt 0.127091 0.253200
vt 0.252093 0.627456
vt 0.250000 0.627456
vt 0.250000 0.253266
vt 0.247942 0.253266
vt 0.372942 0.627456
vt 0.375000 0.627456
vt 0.750000 0.623026
vt 0.752058 0.623026
vt 0.002058 0.253266
vt 0.000000 0.253266
vt 0.875000 0.623026
vt 0.872907 0.623026
vt 0.122909 0.253266
vt 0.125000 0.253266
vt 0.127091 0.253266
vt 0.250068 0.627206
vt 0.250000 0.253012
vt 0.247942 0.253200
vt 0.002058 0.253200
vt 0.000000 0.253012
vt 0.874932 0.622777
vt 0.122909 0.631820
vt 0.124873 0.631410
vt 0.125127 0.631410
vt 0.127091 0.631820
vt 0.002058 0.631886
vt 0.000000 0.631886
vt 0.875000 0.248836
vt 0.872907 0.248836
vt 0.622942 0.627456
vt 0.625000 0.627456
vt 0.750000 0.248836
vt 0.752058 0.248836
vt 0.502093 0.627456
vt 0.500000 0.627456
vt 0.250000 0.631886
vt 0.247942 0.631886
vt 0.122909 0.631886
vt 0.125000 0.631886
vt 0.127091 0.631886
vt 0.002058 0.631819
vt 0.000000 0.631631
vt 0.874932 0.248587
vt 0.500068 0.627206
vt 0.250000 0.631631
vt 0.247942 0.631819
vt 0.622909 0.253200
vt 0.624873 0.252791
vt 0.625127 0.252791
vt 0.627091 0.253200
vt 0.502058 0.253266
vt 0.500000 0.253266
vt 1.000000 0.623026
vt 0.997907 0.623026
vt 0.747942 0.627456
vt 0.750000 0.627456
vt 0.875000 0.623026
vt 0.877058 0.623026
vt 0.627093 0.627456
vt 0.625000 0.627456
vt 0.750000 0.253266
vt 0.747942 0.253266
vt 0.622909 0.253266
vt 0.625000 0.253266
vt 0.627091 0.253266
vt 0.502058 0.253200
vt 0.500000 0.253012
vt 0.999932 0.622777
vt 0.625068 0.627206
vt 0.750000 0.253012
vt 0.747942 0.253200
vt 0.372909 0.253200
vt 0.374873 0.252791
vt 0.375127 0.252791
vt 0.377091 0.253200
vt 0.377093 0.627456
vt 0.375000 0.627456
vt 0.500000 0.253266
vt 0.497942 0.253266
vt 0.497942 0.627456
vt 0.500000 0.627456
vt 0.875000 0.248836
vt 0.877058 0.248836
vt 0.252058 0.253266
vt 0.250000 0.253266
vt 1.000000 0.248836
vt 0.997907 0.248836
vt 0.372909 0.253266
vt 0.375000 0.253266
vt 0.377091 0.253266
vt 0.375068 0.627206
vt 0.500000 0.253012
vt 0.497942 0.253200
vt 0.252058 0.253200
vt 0.250000 0.253012
vt 0.999932 0.248587
vn 0.0000 0.0000 1.0000
vn 0.0000 -0.2610 -0.9653
vn 0.0000 -0.1317 -0.9913
vn 0.0000 -0.1200 -0.9928
vn 0.0000 1.0000 0.0000
vn 0.9913 -0.1317 0.0000
vn 0.9928 -0.1200 0.0000
vn 1.0000 0.0000 0.0000
vn 0.0000 0.0000 -1.0000
vn -1.0000 0.0000 0.0000
vn 0.0000 -1.0000 0.0000
vn 0.9653 -0.2610 0.0000
vn -0.9913 -0.1317 0.0000
vn -0.9928 -0.1200 0.0000
vn -0.9653 -0.2610 0.0000
vn -0.0000 -0.2610 0.9653
vn -0.0000 -0.1200 0.9928
vn -0.0000 -0.1317 0.9913
vn 0.0003 -0.9222 0.3867
vn -0.3673 -0.8545 0.3673
vn -0.3827 -0.9239 -0.0000
vn 0.0003 -0.7069 0.7073
vn -0.3347 -0.6663 0.6663
vn -0.6663 -0.6663 0.3347
vn -0.7071 -0.7071 0.0000
vn -0.5773 -0.5774 0.5774
vn -0.3827 -0.0000 0.9239
vn -0.3673 -0.3673 0.8545
vn 0.0001 -0.3839 0.9234
vn -0.7071 -0.0000 0.7071
vn -0.6663 -0.3347 0.6663
vn -0.9239 -0.3827 -0.0000
vn -0.8545 -0.3673 0.3673
vn -0.9239 -0.0000 0.3827
vn 0.0000 0.3808 -0.9247
vn 0.3547 0.3519 -0.8662
vn 0.3827 -0.0000 -0.9239
vn 0.0001 0.7070 -0.7072
vn 0.3342 0.6652 -0.6677
vn 0.6674 0.3304 -0.6674
vn 0.7071 -0.0000 -0.7071
vn 0.5780 0.5760 -0.5780
vn 0.3827 0.9239 -0.0000
vn 0.3551 0.8647 -0.3551
vn 0.0000 0.9241 -0.3821
vn 0.7071 0.7071 0.0000
vn 0.6677 0.6652 -0.3342
vn 0.9239 -0.0000 -0.3827
vn 0.8662 0.3519 -0.3547
vn 0.9239 0.3827 0.0000
vn 0.3776 0.0000 0.9260
vn 0.3502 0.3521 0.8680
vn 0.0000 0.3827 0.9239
vn 0.7016 0.0000 0.7126
vn 0.6629 0.3316 0.6712
vn 0.3306 0.6656 0.6691
vn 0.0000 0.7071 0.7071
vn 0.5742 0.5766 0.5812
vn 0.8640 0.3535 0.3585
vn 0.9217 0.0000 0.3878
vn 0.6654 0.6663 0.3366
vn 0.0000 0.9239 0.3827
vn 0.3527 0.8652 0.3564
vn -0.9216 -0.1013 -0.3746
vn -0.8397 -0.4304 -0.3312
vn -0.7013 -0.1861 -0.6882
vn -0.6247 -0.4824 -0.6140
vn -0.6270 -0.7162 -0.3066
vn -0.5215 -0.6765 -0.5200
vn -0.0000 -0.5692 -0.8222
vn -0.3133 -0.5425 -0.7794
vn -0.3773 -0.2417 -0.8940
vn 0.0000 -0.7940 -0.6079
vn -0.2837 -0.7611 -0.5834
vn -0.3155 -0.8930 -0.3210
vn -0.0000 -0.9423 -0.3348
vn 0.3381 -0.4416 0.8311
vn 0.3752 -0.1015 0.9214
vn 0.2939 -0.7092 0.6409
vn 0.6096 -0.4714 0.6373
vn 0.6880 -0.1861 0.7014
vn 0.5096 -0.6652 0.5457
vn 0.3306 -0.9438 -0.0003
vn 0.3133 -0.8800 0.3570
vn 0.0002 -0.9222 0.3867
vn 0.6077 -0.7942 -0.0004
vn 0.5764 -0.7533 0.3168
vn 0.8932 -0.2415 0.3794
vn 0.7681 -0.5352 0.3516
vn 0.8240 -0.5667 -0.0002
vn -0.3673 0.3673 0.8545
vn -0.3347 0.6663 0.6663
vn -0.6663 0.3347 0.6663
vn -0.5773 0.5774 0.5773
vn -0.3827 0.9239 0.0000
vn -0.3673 0.8545 0.3673
vn -0.7071 0.7071 0.0000
vn -0.6663 0.6663 0.3347
vn -0.8545 0.3673 0.3673
vn -0.9239 0.3827 -0.0000
vn -0.8570 0.3644 -0.3643
vn -0.9257 0.0000 -0.3782
vn -0.6695 0.6643 -0.3324
vn -0.6726 0.3301 -0.6623
vn -0.7127 0.0000 -0.7015
vn -0.5833 0.5745 -0.5741
vn -0.3710 0.8536 -0.3656
vn -0.3417 0.6644 -0.6647
vn -0.3897 0.0000 -0.9209
vn -0.3760 0.3627 -0.8527
vn 0.3593 -0.3329 -0.8718
vn 0.2896 -0.5974 -0.7478
vn 0.6605 -0.3572 -0.6605
vn 0.5645 -0.6022 -0.5645
vn 0.2620 -0.7944 -0.5480
vn 0.0000 -0.7941 -0.6078
vn 0.4676 -0.7502 -0.4676
vn 0.8239 -0.5667 -0.0002
vn 0.7478 -0.5974 -0.2896
vn 0.8718 -0.3329 -0.3593
vn 0.6077 -0.7941 -0.0004
vn 0.5480 -0.7944 -0.2620
vn 0.2889 -0.9127 -0.2889
vn 0.3867 -0.9222 -0.0003
vn 0.3673 -0.8545 0.3673
vn -0.0000 -0.9239 0.3827
vn 0.7073 -0.7069 -0.0003
vn 0.6663 -0.6663 0.3347
vn 0.3347 -0.6663 0.6663
vn 0.0000 -0.7071 0.7071
vn 0.5773 -0.5773 0.5774
vn 0.9239 -0.0000 0.3827
vn 0.8545 -0.3673 0.3673
vn 0.9234 -0.3839 -0.0001
vn 0.7071 -0.0000 0.7071
vn 0.6663 -0.3347 0.6663
vn -0.0000 -0.3827 0.9239
vn 0.3673 -0.3673 0.8545
vn 0.3827 -0.0000 0.9239
vn -0.3827 -0.0000 -0.9239
vn -0.3547 0.3519 -0.8662
vn 0.0000 0.3827 -0.9239
vn -0.7071 -0.0000 -0.7071
vn -0.6674 0.3304 -0.6674
vn -0.3342 0.6652 -0.6677
vn 0.0000 0.7071 -0.7071
vn -0.5780 0.5760 -0.5780
vn -0.9247 0.3808 -0.0000
vn -0.8662 0.3519 -0.3547
vn -0.9239 -0.0000 -0.3827
vn -0.7072 0.7070 -0.0001
vn -0.6677 0.6652 -0.3342
vn 0.0000 0.9239 -0.3827
vn -0.3551 0.8647 -0.3551
vn -0.3821 0.9241 -0.0000
vn -0.3643 0.3644 0.8570
vn -0.3782 0.0000 0.9257
vn -0.3324 0.6643 0.6695
vn -0.6623 0.3301 0.6726
vn -0.7015 0.0000 0.7127
vn -0.5741 0.5745 0.5833
vn -0.3656 0.8536 0.3710
vn -0.7072 0.7070 -0.0000
vn -0.6647 0.6644 0.3417
vn -0.9209 0.0000 0.3897
vn -0.8527 0.3627 0.3760
vn 0.8311 -0.4416 -0.3381
vn 0.9214 -0.1015 -0.3752
vn 0.6409 -0.7092 -0.2939
vn 0.6373 -0.4714 -0.6096
vn 0.7014 -0.1861 -0.6880
vn 0.5457 -0.6652 -0.5096
vn -0.0003 -0.9438 -0.3306
vn 0.3570 -0.8800 -0.3133
vn 0.3867 -0.9222 -0.0002
vn -0.0004 -0.7942 -0.6077
vn 0.3168 -0.7533 -0.5764
vn 0.3794 -0.2415 -0.8932
vn 0.3516 -0.5352 -0.7681
vn -0.0002 -0.5667 -0.8240
vn -0.3746 -0.1013 0.9216
vn -0.3312 -0.4304 0.8397
vn -0.6882 -0.1861 0.7013
vn -0.6140 -0.4824 0.6247
vn -0.3066 -0.7162 0.6270
vn -0.5200 -0.6765 0.5215
vn -0.8222 -0.5692 0.0000
vn -0.7794 -0.5425 0.3133
vn -0.8940 -0.2417 0.3773
vn -0.6079 -0.7940 -0.0000
vn -0.5834 -0.7611 0.2837
vn -0.3210 -0.8930 0.3155
vn -0.3348 -0.9423 0.0000
vn 0.3673 0.3673 0.8545
vn 0.6663 0.3347 0.6663
vn 0.3347 0.6663 0.6663
vn 0.5774 0.5774 0.5773
vn 0.8545 0.3673 0.3673
vn 0.6663 0.6663 0.3347
vn 0.3673 0.8545 0.3673
vn 0.9260 0.0000 -0.3776
vn 0.8680 0.3521 -0.3502
vn 0.7126 0.0000 -0.7016
vn 0.6712 0.3316 -0.6629
vn 0.6691 0.6656 -0.3306
vn 0.5812 0.5766 -0.5742
vn 0.3585 0.3535 -0.8640
vn 0.3878 0.0000 -0.9217
vn 0.3366 0.6663 -0.6654
vn 0.3564 0.8652 -0.3527
vn -0.0002 -0.5667 -0.8239
vn -0.2896 -0.5974 -0.7478
vn -0.3593 -0.3329 -0.8718
vn -0.0004 -0.7941 -0.6077
vn -0.2620 -0.7944 -0.5480
vn -0.5645 -0.6022 -0.5645
vn -0.6605 -0.3572 -0.6605
vn -0.4676 -0.7502 -0.4676
vn -0.2889 -0.9127 -0.2889
vn -0.6078 -0.7941 -0.0000
vn -0.5480 -0.7944 -0.2620
vn -0.8718 -0.3329 -0.3593
vn -0.7478 -0.5974 -0.2896
vn -0.3867 -0.9222 0.0003
vn -0.3673 -0.8545 -0.3673
vn 0.0000 -0.9239 -0.3827
vn -0.7073 -0.7069 0.0003
vn -0.6663 -0.6663 -0.3347
vn -0.3347 -0.6663 -0.6663
vn -0.0000 -0.7071 -0.7071
vn -0.5773 -0.5773 -0.5774
vn -0.8545 -0.3673 -0.3673
vn -0.9234 -0.3839 0.0001
vn -0.6663 -0.3347 -0.6663
vn 0.0000 -0.3827 -0.9239
vn -0.3673 -0.3673 -0.8545
vn 0.3547 0.3519 0.8662
vn 0.6674 0.3304 0.6674
vn 0.3342 0.6652 0.6677
vn 0.5780 0.5760 0.5780
vn 0.9247 0.3808 0.0000
vn 0.8662 0.3519 0.3547
vn 0.7072 0.7070 0.0001
vn 0.6677 0.6652 0.3342
vn 0.3551 0.8647 0.3551
vn 0.3821 0.9241 0.0000
vn 0.3643 0.3644 -0.8570
vn 0.3782 0.0000 -0.9257
vn 0.3324 0.6643 -0.6695
vn 0.6623 0.3301 -0.6726
vn 0.7015 0.0000 -0.7127
vn 0.5741 0.5745 -0.5833
vn 0.3656 0.8536 -0.3710
vn 0.7072 0.7070 0.0000
vn 0.6647 0.6644 -0.3417
vn 0.9209 0.0000 -0.3897
vn 0.8527 0.3627 -0.3760
vn -0.8311 -0.4416 0.3381
vn -0.9214 -0.1015 0.3752
vn -0.6409 -0.7092 0.2939
vn -0.6373 -0.4714 0.6096
vn -0.7014 -0.1861 0.6880
vn -0.5457 -0.6652 0.5096
vn 0.0003 -0.9438 0.3306
vn -0.3570 -0.8800 0.3133
vn -0.3867 -0.9222 0.0002
vn 0.0004 -0.7942 0.6077
vn -0.3168 -0.7533 0.5764
vn -0.3794 -0.2415 0.8932
vn -0.3516 -0.5352 0.7681
vn 0.0002 -0.5667 0.8240
vn 0.3746 -0.1013 -0.9216
vn 0.3312 -0.4304 -0.8397
vn 0.6882 -0.1861 -0.7013
vn 0.6140 -0.4824 -0.6247
vn 0.3066 -0.7162 -0.6270
vn 0.5200 -0.6765 -0.5215
vn 0.8222 -0.5692 -0.0000
vn 0.7794 -0.5425 -0.3133
vn 0.8940 -0.2417 -0.3773
vn 0.6079 -0.7940 0.0000
vn 0.5834 -0.7611 -0.2837
vn 0.3210 -0.8930 -0.3155
vn 0.3348 -0.9423 -0.0000
vn -0.3673 0.3673 -0.8545
vn -0.6663 0.3347 -0.6663
vn -0.3347 0.6663 -0.6663
vn -0.5774 0.5774 -0.5773
vn -0.8545 0.3673 -0.3673
vn -0.6663 0.6663 -0.3347
vn -0.3673 0.8545 -0.3673
vn -0.9260 0.0000 0.3776
vn -0.8680 0.3521 0.3502
vn -0.7126 0.0000 0.7016
vn -0.6712 0.3316 0.6629
vn -0.6691 0.6656 0.3306
vn -0.5812 0.5766 0.5742
vn -0.3585 0.3535 0.8640
vn -0.3878 0.0000 0.9217
vn -0.3366 0.6663 0.6654
vn -0.3564 0.8652 0.3527
vn 0.0002 -0.5667 0.8239
vn 0.2896 -0.5974 0.7478
vn 0.3593 -0.3329 0.8718
vn 0.0004 -0.7941 0.6077
vn 0.2620 -0.7944 0.5480
vn 0.5645 -0.6022 0.5645
vn 0.6605 -0.3572 0.6605
vn 0.4676 -0.7502 0.4676
vn 0.2889 -0.9127 0.2889
vn 0.6078 -0.7941 0.0000
vn 0.5480 -0.7944 0.2620
vn 0.8718 -0.3329 0.3593
vn 0.7478 -0.5974 0.2896
vn -0.0003 -0.9222 -0.3867
vn 0.3673 -0.8545 -0.3673
vn 0.3827 -0.9239 0.0000
vn -0.0003 -0.7069 -0.7073
vn 0.3347 -0.6663 -0.6663
vn 0.6663 -0.6663 -0.3347
vn 0.7071 -0.7071 -0.0000
vn 0.5773 -0.5774 -0.5774
vn 0.3673 -0.3673 -0.8545
vn -0.0001 -0.3839 -0.9234
vn 0.6663 -0.3347 -0.6663
vn 0.9239 -0.3827 0.0000
vn 0.8545 -0.3673 -0.3673
vn -0.0000 0.3808 0.9247
vn -0.3547 0.3519 0.8662
vn -0.0001 0.7070 0.7072
vn -0.3342 0.6652 0.6677
vn -0.6674 0.3304 0.6674
vn -0.5780 0.5760 0.5780
vn -0.3551 0.8647 0.3551
vn -0.0000 0.9241 0.3821
vn -0.6677 0.6652 0.3342
vn -0.8662 0.3519 0.3547
vn -0.3776 0.0000 -0.9260
vn -0.3502 0.3521 -0.8680
vn -0.7016 0.0000 -0.7126
vn -0.6629 0.3316 -0.6712
vn -0.3306 0.6656 -0.6691
vn -0.5742 0.5766 -0.5812
vn -0.8640 0.3535 -0.3585
vn -0.9217 0.0000 -0.3878
vn -0.6654 0.6663 -0.3366
vn -0.3527 0.8652 -0.3564
vn 0.9216 -0.1013 0.3746
vn 0.8397 -0.4304 0.3312
vn 0.7013 -0.1861 0.6882
vn 0.6247 -0.4824 0.6140
vn 0.6270 -0.7162 0.3066
vn 0.5215 -0.6765 0.5200
vn 0.0000 -0.5692 0.8222
vn 0.3133 -0.5425 0.7794
vn 0.3773 -0.2417 0.8940
vn -0.0000 -0.7940 0.6079
vn 0.2837 -0.7611 0.5834
vn 0.3155 -0.8930 0.3210
vn 0.0000 -0.9423 0.3348
vn -0.3381 -0.4416 -0.8311
vn -0.3752 -0.1015 -0.9214
vn -0.2939 -0.7092 -0.6409
vn -0.6096 -0.4714 -0.6373
vn -0.6880 -0.1861 -0.7014
vn -0.5096 -0.6652 -0.5457
vn -0.3306 -0.9438 0.0003
vn -0.3133 -0.8800 -0.3570
vn -0.0002 -0.9222 -0.3867
vn -0.6077 -0.7942 0.0004
vn -0.5764 -0.7533 -0.3168
vn -0.8932 -0.2415 -0.3794
vn -0.7681 -0.5352 -0.3516
vn -0.8240 -0.5667 0.0002
vn 0.3673 0.3673 -0.8545
vn 0.3347 0.6663 -0.6663
vn 0.6663 0.3347 -0.6663
vn 0.5773 0.5774 -0.5773
vn 0.3673 0.8545 -0.3673
vn 0.6663 0.6663 -0.3347
vn 0.8545 0.3673 -0.3673
vn 0.8570 0.3644 0.3643
vn 0.9257 0.0000 0.3782
vn 0.6695 0.6643 0.3324
vn 0.6726 0.3301 0.6623
vn 0.7127 0.0000 0.7015
vn 0.5833 0.5745 0.5741
vn 0.3710 0.8536 0.3656
vn 0.3417 0.6644 0.6647
vn 0.3897 0.0000 0.9209
vn 0.3760 0.3627 0.8527
vn -0.3593 -0.3329 0.8718
vn -0.2896 -0.5974 0.7478
vn -0.6605 -0.3572 0.6605
vn -0.5645 -0.6022 0.5645
vn -0.2620 -0.7944 0.5480
vn -0.0000 -0.7941 0.6078
vn -0.4676 -0.7502 0.4676
vn -0.8239 -0.5667 0.0002
vn -0.7478 -0.5974 0.2896
vn -0.8718 -0.3329 0.3593
vn -0.6077 -0.7941 0.0004
vn -0.5480 -0.7944 0.2620
vn -0.2889 -0.9127 0.2889
vn 0.9897 -0.1371 0.0402
vn 0.8290 -0.1647 -0.5344
vn 0.5558 -0.1748 -0.8127
vn 0.2231 -0.1637 -0.9610
vn -0.0402 -0.1371 -0.9897
vn -0.8969 -0.0558 -0.4388
vn -0.6319 -0.0948 -0.7693
vn -0.2652 -0.1191 -0.9568
vn 0.0392 -0.1312 -0.9906
vn 0.9906 -0.1312 -0.0392
vn 0.8634 -0.1181 0.4904
vn 0.6366 -0.0932 0.7656
vn 0.3415 -0.0530 0.9384
vn 0.0402 -0.1371 -0.9897
vn -0.5344 -0.1647 -0.8290
vn -0.8127 -0.1748 -0.5558
vn -0.9610 -0.1637 -0.2231
vn -0.9897 -0.1371 0.0402
vn -0.0392 -0.1312 -0.9906
vn 0.4904 -0.1181 -0.8634
vn 0.7656 -0.0932 -0.6366
vn 0.9384 -0.0530 -0.3415
vn -0.4388 -0.0558 0.8969
vn -0.7693 -0.0948 0.6319
vn -0.9568 -0.1191 0.2652
vn -0.9906 -0.1312 -0.0392
vn -0.0402 -0.1371 0.9897
vn 0.5344 -0.1647 0.8290
vn 0.8127 -0.1748 0.5558
vn 0.9610 -0.1637 0.2231
vn 0.9897 -0.1371 -0.0402
vn 0.0392 -0.1312 0.9906
vn -0.4904 -0.1181 0.8634
vn -0.7656 -0.0932 0.6366
vn -0.9384 -0.0530 0.3415
vn 0.4388 -0.0558 -0.8969
vn 0.7693 -0.0948 -0.6319
vn 0.9568 -0.1191 -0.2652
vn 0.9906 -0.1312 0.0392
vn -0.9897 -0.1371 -0.0402
vn -0.8290 -0.1647 0.5344
vn -0.5558 -0.1748 0.8127
vn -0.2231 -0.1637 0.9610
vn 0.0402 -0.1371 0.9897
vn 0.8969 -0.0558 0.4388
vn 0.6319 -0.0948 0.7693
vn 0.2652 -0.1191 0.9568
vn -0.0392 -0.1312 0.9906
vn -0.9906 -0.1312 0.0392
vn -0.8634 -0.1181 -0.4904
vn -0.6366 -0.0932 -0.7656
vn -0.3415 -0.0530 -0.9384
g Mars_Angled_Stump_Side_Table_30x30x45_Plane_Mars_Angled_Stump_Side_Table_30x30x45
usemtl Mars_Angled_Stump_Side_Table_30x30x45
s 1
f 163/1/1 168/2/1 39/3/1 96/4/1
f 134/5/2 59/6/2 158/7/3 153/8/4
f 97/9/5 41/10/5 21/11/5 116/12/5
f 169/13/6 154/14/7 22/15/8 40/16/8
f 230/17/8 330/18/8 335/19/8 174/20/8
f 153/8/4 158/7/3 117/21/9 20/22/9
f 159/23/10 164/24/10 98/25/10 115/26/10
f 2/27/1 77/28/1 168/2/1 163/1/1
f 1/29/11 60/30/11 136/31/11 78/32/11
f 79/33/12 135/34/12 154/14/7 169/13/6
f 336/35/1 268/36/1 211/37/1 341/38/1
f 306/39/2 326/40/4 331/41/3 232/42/2
f 270/43/5 289/44/5 194/45/5 212/46/5
f 340/47/13 213/48/10 193/49/10 325/50/14
f 402/51/10 502/52/10 507/53/10 346/54/10
f 326/40/4 192/55/9 288/56/9 331/41/3
f 330/18/8 287/57/8 269/58/8 335/19/8
f 175/59/1 336/35/1 341/38/1 249/60/1
f 173/61/11 251/62/11 307/63/11 231/64/11
f 250/65/15 340/47/13 325/50/14 308/66/15
f 508/67/9 440/68/9 383/69/9 513/70/9
f 478/71/16 498/72/17 503/73/18 404/74/16
f 442/75/5 461/76/5 366/77/5 384/78/5
f 512/79/6 385/80/8 365/81/8 497/82/7
f 574/83/8 519/84/8 680/85/8 675/86/8
f 498/72/17 364/87/1 460/88/1 503/73/18
f 502/52/10 459/89/10 441/90/10 507/53/10
f 347/91/9 508/67/9 513/70/9 421/92/9
f 345/93/11 423/94/11 479/95/11 403/96/11
f 422/97/12 512/79/6 497/82/7 480/98/12
f 679/99/9 684/100/9 555/101/9 612/102/9
f 650/103/16 575/104/16 674/105/18 669/106/17
f 613/107/5 557/108/5 537/109/5 632/110/5
f 685/111/13 670/112/14 538/113/10 556/114/10
f 669/106/17 674/105/18 633/115/1 536/116/1
f 675/86/8 680/85/8 614/117/8 631/118/8
f 518/119/9 593/120/9 684/100/9 679/99/9
f 517/121/11 576/122/11 652/123/11 594/124/11
f 595/125/15 651/126/15 670/112/14 685/111/13
f 1/29/11 4/127/19 7/128/20 6/129/21
f 4/127/19 5/130/22 8/131/23 7/128/20
f 6/129/21 7/128/20 19/132/24 16/133/25
f 7/128/20 8/131/23 9/134/26 19/132/24
f 2/27/1 10/135/27 13/136/28 12/137/29
f 10/135/27 11/138/30 14/139/31 13/136/28
f 12/137/29 13/136/28 8/140/23 5/141/22
f 13/136/28 14/139/31 9/142/26 8/140/23
f 3/143/10 15/144/32 18/145/33 17/146/34
f 15/144/32 16/147/25 19/148/24 18/145/33
f 17/146/34 18/145/33 14/149/31 11/150/30
f 18/145/33 19/148/24 9/151/26 14/149/31
f 20/22/9 23/152/35 26/153/36 25/154/37
f 23/152/35 24/155/38 27/156/39 26/153/36
f 25/154/37 26/153/36 38/157/40 35/158/41
f 26/153/36 27/156/39 28/159/42 38/157/40
f 21/11/5 29/160/43 32/161/44 31/162/45
f 29/160/43 30/163/46 33/164/47 32/161/44
f 31/162/45 32/161/44 27/165/39 24/166/38
f 32/161/44 33/164/47 28/167/42 27/165/39
f 22/15/8 34/168/48 37/169/49 36/170/50
f 34/168/48 35/158/41 38/157/40 37/169/49
f 36/170/50 37/169/49 33/171/47 30/172/46
f 37/169/49 38/157/40 28/173/42 33/171/47
f 39/3/1 42/174/51 45/175/52 44/176/53
f 42/174/51 43/177/54 46/178/55 45/175/52
f 44/176/53 45/175/52 57/179/56 54/180/57
f 45/175/52 46/178/55 47/181/58 57/179/56
f 40/16/8 48/182/50 51/183/59 50/184/60
f 48/182/50 49/185/46 52/186/61 51/183/59
f 50/184/60 51/183/59 46/187/55 43/188/54
f 51/183/59 52/186/61 47/189/58 46/187/55
f 41/10/5 53/190/62 56/191/63 55/192/43
f 53/190/62 54/193/57 57/194/56 56/191/63
f 55/192/43 56/191/63 52/195/61 49/196/46
f 56/191/63 57/194/56 47/197/58 52/195/61
f 58/198/10 61/199/64 64/200/65 63/201/32
f 61/199/64 62/202/66 65/203/67 64/200/65
f 63/201/32 64/200/65 76/204/68 73/205/25
f 64/200/65 65/203/67 66/206/69 76/204/68
f 59/6/2 67/207/70 70/208/71 69/209/72
f 67/207/70 68/210/73 71/211/74 70/208/71
f 69/209/72 70/208/71 65/212/67 62/213/66
f 70/208/71 71/211/74 66/214/69 65/212/67
f 60/30/11 72/215/21 75/216/75 74/217/76
f 72/215/21 73/218/25 76/219/68 75/216/75
f 74/217/76 75/216/75 71/220/74 68/221/73
f 75/216/75 76/219/68 66/222/69 71/220/74
f 77/28/1 80/223/29 83/224/77 82/225/78
f 80/223/29 81/226/22 84/227/79 83/224/77
f 82/225/78 83/224/77 95/228/80 92/229/81
f 83/224/77 84/227/79 85/230/82 95/228/80
f 78/32/11 86/231/83 89/232/84 88/233/85
f 86/231/83 87/234/86 90/235/87 89/232/84
f 88/233/85 89/232/84 84/236/79 81/237/22
f 89/232/84 90/235/87 85/238/82 84/236/79
f 79/33/12 91/239/88 94/240/89 93/241/90
f 91/239/88 92/242/81 95/243/80 94/240/89
f 93/241/90 94/240/89 90/244/87 87/245/86
f 94/240/89 95/243/80 85/246/82 90/244/87
f 96/4/1 99/247/53 102/248/91 101/249/27
f 99/247/53 100/250/57 103/251/92 102/248/91
f 101/249/27 102/248/91 114/252/93 111/253/30
f 102/248/91 103/251/92 104/254/94 114/252/93
f 97/9/5 105/255/95 108/256/96 107/257/62
f 105/255/95 106/258/97 109/259/98 108/256/96
f 107/257/62 108/256/96 103/260/92 100/261/57
f 108/256/96 109/259/98 104/262/94 103/260/92
f 98/25/10 110/263/34 113/264/99 112/265/100
f 110/263/34 111/266/30 114/267/93 113/264/99
f 112/265/100 113/264/99 109/268/98 106/269/97
f 113/264/99 114/267/93 104/270/94 109/268/98
f 115/26/10 118/271/100 121/272/101 120/273/102
f 118/271/100 119/274/97 122/275/103 121/272/101
f 120/273/102 121/272/101 133/276/104 130/277/105
f 121/272/101 122/275/103 123/278/106 133/276/104
f 116/12/5 124/279/45 127/280/107 126/281/95
f 124/279/45 125/282/38 128/283/108 127/280/107
f 126/281/95 127/280/107 122/284/103 119/285/97
f 127/280/107 128/283/108 123/286/106 122/284/103
f 117/21/9 129/287/109 132/288/110 131/289/35
f 129/287/109 130/290/105 133/291/104 132/288/110
f 131/289/35 132/288/110 128/292/108 125/293/38
f 132/288/110 133/291/104 123/294/106 128/292/108
f 134/5/2 137/295/111 140/296/112 139/297/70
f 137/295/111 138/298/113 141/299/114 140/296/112
f 139/297/70 140/296/112 152/300/115 149/301/116
f 140/296/112 141/299/114 142/302/117 152/300/115
f 135/34/12 143/303/118 146/304/119 145/305/120
f 143/303/118 144/306/121 147/307/122 146/304/119
f 145/305/120 146/304/119 141/308/114 138/309/113
f 146/304/119 147/307/122 142/310/117 141/308/114
f 136/31/11 148/311/76 151/312/123 150/313/83
f 148/311/76 149/314/116 152/315/115 151/312/123
f 150/313/83 151/312/123 147/316/122 144/317/121
f 151/312/123 152/315/115 142/318/117 147/316/122
f 173/61/11 176/319/124 179/320/125 178/321/126
f 176/319/124 177/322/127 180/323/128 179/320/125
f 178/321/126 179/320/125 191/324/129 188/325/130
f 179/320/125 180/323/128 181/326/131 191/324/129
f 174/20/8 182/327/132 185/328/133 184/329/134
f 182/327/132 183/330/135 186/331/136 185/328/133
f 184/329/134 185/328/133 180/332/128 177/333/127
f 185/328/133 186/331/136 181/334/131 180/332/128
f 175/59/1 187/335/137 190/336/138 189/337/139
f 187/335/137 188/338/130 191/339/129 190/336/138
f 189/337/139 190/336/138 186/340/136 183/341/135
f 190/336/138 191/339/129 181/342/131 186/340/136
f 192/55/9 195/343/140 198/344/141 197/345/142
f 195/343/140 196/346/143 199/347/144 198/344/141
f 197/345/142 198/344/141 210/348/145 207/349/146
f 198/344/141 199/347/144 200/350/147 210/348/145
f 193/49/10 201/351/148 204/352/149 203/353/150
f 201/351/148 202/354/151 205/355/152 204/352/149
f 203/353/150 204/352/149 199/347/144 196/346/143
f 204/352/149 205/355/152 200/356/147 199/347/144
f 194/45/5 206/357/153 209/358/154 208/359/155
f 206/357/153 207/360/146 210/361/145 209/358/154
f 208/359/155 209/358/154 205/362/152 202/363/151
f 209/358/154 210/361/145 200/364/147 205/362/152
f 211/37/1 214/365/53 217/366/156 216/367/157
f 214/365/53 215/368/57 218/369/158 217/366/156
f 216/367/157 217/366/156 229/370/159 226/371/160
f 217/366/156 218/369/158 219/372/161 229/370/159
f 212/46/5 220/373/155 223/374/162 222/375/62
f 220/373/155 221/376/163 224/377/164 223/374/162
f 222/375/62 223/374/162 218/378/158 215/379/57
f 223/374/162 224/377/164 219/380/161 218/378/158
f 213/48/10 225/381/165 228/382/166 227/383/148
f 225/381/165 226/384/160 229/385/159 228/382/166
f 227/383/148 228/382/166 224/386/164 221/387/163
f 228/382/166 229/385/159 219/388/161 224/386/164
f 230/17/8 233/389/134 236/390/167 235/391/168
f 233/389/134 234/392/127 237/393/169 236/390/167
f 235/391/168 236/390/167 248/394/170 245/395/171
f 236/390/167 237/393/169 238/396/172 248/394/170
f 231/64/11 239/397/173 242/398/174 241/399/175
f 239/397/173 240/400/176 243/401/177 242/398/174
f 241/399/175 242/398/174 237/402/169 234/403/127
f 242/398/174 243/401/177 238/404/172 237/402/169
f 232/42/2 244/405/178 247/406/179 246/407/180
f 244/405/178 245/408/171 248/409/170 247/406/179
f 246/407/180 247/406/179 243/410/177 240/411/176
f 247/406/179 248/409/170 238/412/172 243/410/177
f 249/60/1 252/413/181 255/414/182 254/415/137
f 252/413/181 253/416/183 256/417/184 255/414/182
f 254/415/137 255/414/182 267/418/185 264/419/130
f 255/414/182 256/417/184 257/420/186 267/418/185
f 250/65/15 258/421/187 261/422/188 260/423/189
f 258/421/187 259/424/190 262/425/191 261/422/188
f 260/423/189 261/422/188 256/426/184 253/427/183
f 261/422/188 262/425/191 257/428/186 256/426/184
f 251/62/11 263/429/126 266/430/192 265/431/193
f 263/429/126 264/432/130 267/433/185 266/430/192
f 265/431/193 266/430/192 262/434/191 259/435/190
f 266/430/192 267/433/185 257/436/186 262/434/191
f 268/36/1 271/437/139 274/438/194 273/439/53
f 271/437/139 272/440/135 275/441/195 274/438/194
f 273/439/53 274/438/194 286/442/196 283/443/57
f 274/438/194 275/441/195 276/444/197 286/442/196
f 269/58/8 277/445/50 280/446/198 279/447/132
f 277/445/50 278/448/46 281/449/199 280/446/198
f 279/447/132 280/446/198 275/450/195 272/451/135
f 280/446/198 281/449/199 276/452/197 275/450/195
f 270/43/5 282/453/62 285/454/200 284/455/43
f 282/453/62 283/456/57 286/457/196 285/454/200
f 284/455/43 285/454/200 281/458/199 278/459/46
f 285/454/200 286/457/196 276/460/197 281/458/199
f 287/57/8 290/461/201 293/462/202 292/463/50
f 290/461/201 291/464/203 294/465/204 293/462/202
f 292/463/50 293/462/202 305/466/205 302/467/46
f 293/462/202 294/465/204 295/468/206 305/466/205
f 288/56/9 296/469/142 299/470/207 298/471/208
f 296/469/142 297/472/146 300/473/209 299/470/207
f 298/471/208 299/470/207 294/474/204 291/475/203
f 299/470/207 300/473/209 295/476/206 294/474/204
f 289/44/5 301/477/43 304/478/210 303/479/153
f 301/477/43 302/480/46 305/481/205 304/478/210
f 303/479/153 304/478/210 300/482/209 297/483/146
f 304/478/210 305/481/205 295/484/206 300/482/209
f 306/39/2 309/485/211 312/486/212 311/487/213
f 309/485/211 310/488/214 313/489/215 312/486/212
f 311/487/213 312/486/212 324/490/216 321/491/217
f 312/486/212 313/489/215 314/492/218 324/490/216
f 307/63/11 315/493/193 318/494/219 317/495/173
f 315/493/193 316/496/220 319/497/221 318/494/219
f 317/495/173 318/494/219 313/498/215 310/499/214
f 318/494/219 319/497/221 314/500/218 313/498/215
f 308/66/15 320/501/222 323/502/223 322/503/187
f 320/501/222 321/504/217 324/505/216 323/502/223
f 322/503/187 323/502/223 319/506/221 316/507/220
f 323/502/223 324/505/216 314/508/218 319/506/221
f 345/93/11 348/509/224 351/510/225 350/511/226
f 348/509/224 349/512/227 352/513/228 351/510/225
f 350/511/226 351/510/225 363/514/229 360/515/230
f 351/510/225 352/513/228 353/516/231 363/514/229
f 346/54/10 354/517/150 357/518/232 356/519/233
f 354/517/150 355/520/143 358/521/234 357/518/232
f 356/519/233 357/518/232 352/522/228 349/523/227
f 357/518/232 358/521/234 353/524/231 352/522/228
f 347/91/9 359/525/235 362/526/236 361/527/140
f 359/525/235 360/528/230 363/529/229 362/526/236
f 361/527/140 362/526/236 358/530/234 355/531/143
f 362/526/236 363/529/229 353/532/231 358/530/234
f 364/87/1 367/533/139 370/534/237 369/535/53
f 367/533/139 368/536/135 371/537/238 370/534/237
f 369/535/53 370/534/237 382/538/239 379/539/57
f 370/534/237 371/537/238 372/540/240 382/538/239
f 365/81/8 373/541/241 376/542/242 375/543/132
f 373/541/241 374/544/243 377/545/244 376/542/242
f 375/543/132 376/542/242 371/537/238 368/536/135
f 376/542/242 377/545/244 372/546/240 371/537/238
f 366/77/5 378/547/62 381/548/245 380/549/246
f 378/547/62 379/550/57 382/551/239 381/548/245
f 380/549/246 381/548/245 377/552/244 374/553/243
f 381/548/245 382/551/239 372/554/240 377/552/244
f 383/69/9 386/555/142 389/556/247 388/557/248
f 386/555/142 387/558/146 390/559/249 389/556/247
f 388/557/248 389/556/247 401/560/250 398/561/251
f 389/556/247 390/559/249 391/562/252 401/560/250
f 384/78/5 392/563/246 395/564/253 394/565/153
f 392/563/246 393/566/254 396/567/255 395/564/253
f 394/565/153 395/564/253 390/568/249 387/569/146
f 395/564/253 396/567/255 391/570/252 390/568/249
f 385/80/8 397/571/256 400/572/257 399/573/241
f 397/571/256 398/574/251 401/575/250 400/572/257
f 399/573/241 400/572/257 396/576/255 393/577/254
f 400/572/257 401/575/250 391/578/252 396/576/255
f 402/51/10 405/579/233 408/580/258 407/581/259
f 405/579/233 406/582/227 409/583/260 408/580/258
f 407/581/259 408/580/258 420/584/261 417/585/262
f 408/580/258 409/583/260 410/586/263 420/584/261
f 403/96/11 411/587/264 414/588/265 413/589/266
f 411/587/264 412/590/267 415/591/268 414/588/265
f 413/589/266 414/588/265 409/592/260 406/593/227
f 414/588/265 415/591/268 410/594/263 409/592/260
f 404/74/16 416/595/269 419/596/270 418/597/271
f 416/595/269 417/598/262 420/599/261 419/596/270
f 418/597/271 419/596/270 415/600/268 412/601/267
f 419/596/270 420/599/261 410/602/263 415/600/268
f 421/92/9 424/603/272 427/604/273 426/605/235
f 424/603/272 425/606/274 428/607/275 427/604/273
f 426/605/235 427/604/273 439/608/276 436/609/230
f 427/604/273 428/607/275 429/610/277 439/608/276
f 422/97/12 430/611/278 433/612/279 432/613/280
f 430/611/278 431/614/281 434/615/282 433/612/279
f 432/613/280 433/612/279 428/616/275 425/617/274
f 433/612/279 434/615/282 429/618/277 428/616/275
f 423/94/11 435/619/226 438/620/283 437/621/284
f 435/619/226 436/622/230 439/623/276 438/620/283
f 437/621/284 438/620/283 434/624/282 431/625/281
f 438/620/283 439/623/276 429/626/277 434/624/282
f 440/68/9 443/627/140 446/628/285 445/629/142
f 443/627/140 444/630/143 447/631/286 446/628/285
f 445/629/142 446/628/285 458/632/287 455/633/146
f 446/628/285 447/631/286 448/634/288 458/632/287
f 441/90/10 449/635/100 452/636/289 451/637/150
f 449/635/100 450/638/97 453/639/290 452/636/289
f 451/637/150 452/636/289 447/640/286 444/641/143
f 452/636/289 453/639/290 448/642/288 447/640/286
f 442/75/5 454/643/153 457/644/291 456/645/95
f 454/643/153 455/646/146 458/647/287 457/644/291
f 456/645/95 457/644/291 453/648/290 450/649/97
f 457/644/291 458/647/287 448/650/288 453/648/290
f 459/89/10 462/651/292 465/652/293 464/653/100
f 462/651/292 463/654/294 466/655/295 465/652/293
f 464/653/100 465/652/293 477/656/296 474/657/97
f 465/652/293 466/655/295 467/658/297 477/656/296
f 460/88/1 468/659/53 471/660/298 470/661/299
f 468/659/53 469/662/57 472/663/300 471/660/298
f 470/661/299 471/660/298 466/664/295 463/665/294
f 471/660/298 472/663/300 467/666/297 466/664/295
f 461/76/5 473/667/95 476/668/301 475/669/62
f 473/667/95 474/670/97 477/671/296 476/668/301
f 475/669/62 476/668/301 472/672/300 469/673/57
f 476/668/301 477/671/296 467/674/297 472/672/300
f 478/71/16 481/675/302 484/676/303 483/677/304
f 481/675/302 482/678/305 485/679/306 484/676/303
f 483/677/304 484/676/303 496/680/307 493/681/308
f 484/676/303 485/679/306 486/682/309 496/680/307
f 479/95/11 487/683/284 490/684/310 489/685/264
f 487/683/284 488/686/311 491/687/312 490/684/310
f 489/685/264 490/684/310 485/688/306 482/689/305
f 490/684/310 491/687/312 486/690/309 485/688/306
f 480/98/12 492/691/313 495/692/314 494/693/278
f 492/691/313 493/694/308 496/695/307 495/692/314
f 494/693/278 495/692/314 491/696/312 488/697/311
f 495/692/314 496/695/307 486/698/309 491/696/312
f 517/121/11 520/699/315 523/700/316 522/701/317
f 520/699/315 521/702/318 524/703/319 523/700/316
f 522/701/317 523/700/316 535/704/320 532/705/321
f 523/700/316 524/703/319 525/706/322 535/704/320
f 518/119/9 526/707/37 529/708/323 528/709/324
f 526/707/37 527/710/41 530/711/325 529/708/323
f 528/709/324 529/708/323 524/712/319 521/713/318
f 529/708/323 530/711/325 525/714/322 524/712/319
f 519/84/8 531/715/326 534/716/327 533/717/48
f 531/715/326 532/718/321 535/719/320 534/716/327
f 533/717/48 534/716/327 530/720/325 527/721/41
f 534/716/327 535/719/320 525/722/322 530/720/325
f 536/116/1 539/723/328 542/724/329 541/725/27
f 539/723/328 540/726/330 543/727/331 542/724/329
f 541/725/27 542/724/329 554/728/332 551/729/30
f 542/724/329 543/727/331 544/730/333 554/728/332
f 537/109/5 545/731/95 548/732/334 547/733/335
f 545/731/95 546/734/97 549/735/336 548/732/334
f 547/733/335 548/732/334 543/736/331 540/737/330
f 548/732/334 549/735/336 544/738/333 543/736/331
f 538/113/10 550/739/34 553/740/337 552/741/100
f 550/739/34 551/729/30 554/728/332 553/740/337
f 552/741/100 553/740/337 549/742/336 546/743/97
f 553/740/337 554/728/332 544/744/333 549/742/336
f 555/101/9 558/745/338 561/746/339 560/747/142
f 558/745/338 559/748/340 562/749/341 561/746/339
f 560/747/142 561/746/339 573/750/342 570/751/146
f 561/746/339 562/749/341 563/752/343 573/750/342
f 556/114/10 564/753/100 567/754/344 566/755/345
f 564/753/100 565/756/97 568/757/346 567/754/344
f 566/755/345 567/754/344 562/758/341 559/759/340
f 567/754/344 568/757/346 563/760/343 562/758/341
f 557/108/5 569/761/153 572/762/347 571/763/95
f 569/761/153 570/764/146 573/765/342 572/762/347
f 571/763/95 572/762/347 568/766/346 565/767/97
f 572/762/347 573/765/342 563/768/343 568/766/346
f 574/83/8 577/769/348 580/770/349 579/771/326
f 577/769/348 578/772/350 581/773/351 580/770/349
f 579/771/326 580/770/349 592/774/352 589/775/321
f 580/770/349 581/773/351 582/776/353 592/774/352
f 575/104/16 583/777/354 586/778/355 585/779/356
f 583/777/354 584/780/357 587/781/358 586/778/355
f 585/779/356 586/778/355 581/782/351 578/783/350
f 586/778/355 587/781/358 582/784/353 581/782/351
f 576/122/11 588/785/317 591/786/359 590/787/360
f 588/785/317 589/788/321 592/789/352 591/786/359
f 590/787/360 591/786/359 587/790/358 584/791/357
f 591/786/359 592/789/352 582/792/353 587/790/358
f 593/120/9 596/793/324 599/794/361 598/795/362
f 596/793/324 597/796/318 600/797/363 599/794/361
f 598/795/362 599/794/361 611/798/364 608/799/365
f 599/794/361 600/797/363 601/800/366 611/798/364
f 594/124/11 602/801/367 605/802/368 604/803/369
f 602/801/367 603/804/370 606/805/371 605/802/368
f 604/803/369 605/802/368 600/806/363 597/807/318
f 605/802/368 606/805/371 601/808/366 600/806/363
f 595/125/15 607/809/372 610/810/373 609/811/374
f 607/809/372 608/812/365 611/813/364 610/810/373
f 609/811/374 610/810/373 606/814/371 603/815/370
f 610/810/373 611/813/364 601/816/366 606/814/371
f 612/102/9 615/817/142 618/818/375 617/819/37
f 615/817/142 616/820/146 619/821/376 618/818/375
f 617/819/37 618/818/375 630/822/377 627/823/41
f 618/818/375 619/821/376 620/824/378 630/822/377
f 613/107/5 621/825/43 624/826/379 623/827/153
f 621/825/43 622/828/46 625/829/380 624/826/379
f 623/827/153 624/826/379 619/830/376 616/831/146
f 624/826/379 625/829/380 620/832/378 619/830/376
f 614/117/8 626/833/48 629/834/381 628/835/50
f 626/833/48 627/836/41 630/837/377 629/834/381
f 628/835/50 629/834/381 625/838/380 622/839/46
f 629/834/381 630/837/377 620/840/378 625/838/380
f 631/118/8 634/841/50 637/842/382 636/843/383
f 634/841/50 635/844/46 638/845/384 637/842/382
f 636/843/383 637/842/382 649/846/385 646/847/386
f 637/842/382 638/845/384 639/848/387 649/846/385
f 632/110/5 640/849/335 643/850/388 642/851/43
f 640/849/335 641/852/330 644/853/389 643/850/388
f 642/851/43 643/850/388 638/854/384 635/855/46
f 643/850/388 644/853/389 639/856/387 638/854/384
f 633/115/1 645/857/390 648/858/391 647/859/328
f 645/857/390 646/860/386 649/861/385 648/858/391
f 647/859/328 648/858/391 644/862/389 641/863/330
f 648/858/391 649/861/385 639/864/387 644/862/389
f 650/103/16 653/865/392 656/866/393 655/867/354
f 653/865/392 654/868/394 657/869/395 656/866/393
f 655/867/354 656/866/393 668/870/396 665/871/397
f 656/866/393 657/869/395 658/872/398 668/870/396
f 651/126/15 659/873/399 662/874/400 661/875/401
f 659/873/399 660/876/402 663/877/403 662/874/400
f 661/875/401 662/874/400 657/878/395 654/879/394
f 662/874/400 663/877/403 658/880/398 657/878/395
f 652/123/11 664/881/360 667/882/404 666/883/367
f 664/881/360 665/884/397 668/885/396 667/882/404
f 666/883/367 667/882/404 663/886/403 660/887/402
f 667/882/404 668/885/396 658/888/398 663/886/403
f 60/30/11 1/29/11 6/129/21 72/215/21
f 72/215/21 6/129/21 16/133/25 73/218/25
f 73/205/25 16/147/25 15/144/32 63/201/32
f 63/201/32 15/144/32 3/143/10 58/198/10
f 154/14/405 135/34/12 145/305/120 157/889/406
f 157/889/406 145/305/120 138/309/113 156/890/407
f 156/891/407 138/298/113 137/295/111 155/892/408
f 155/892/408 137/295/111 134/5/2 153/8/409
f 159/23/10 115/26/10 120/273/102 162/893/410
f 162/893/410 120/273/102 130/277/105 161/894/411
f 161/895/411 130/290/105 129/287/109 160/896/412
f 160/896/412 129/287/109 117/21/9 158/7/413
f 164/24/10 3/143/10 17/146/34 167/897/34
f 167/897/34 17/146/34 11/150/30 166/898/30
f 166/899/30 11/138/30 10/135/27 165/900/27
f 165/900/27 10/135/27 2/27/1 163/1/1
f 169/13/414 40/16/8 50/184/60 172/901/415
f 172/901/415 50/184/60 43/188/54 171/902/416
f 171/903/416 43/177/54 42/174/51 170/904/417
f 170/904/417 42/174/51 39/3/1 168/2/1
f 1/29/11 78/32/11 88/233/85 4/127/19
f 4/127/19 88/233/85 81/237/22 5/130/22
f 5/141/22 81/226/22 80/223/29 12/137/29
f 12/137/29 80/223/29 77/28/1 2/27/1
f 20/22/9 117/21/9 131/289/35 23/152/35
f 23/152/35 131/289/35 125/293/38 24/155/38
f 24/166/38 125/282/38 124/279/45 31/162/45
f 31/162/45 124/279/45 116/12/5 21/11/5
f 40/16/8 22/15/8 36/170/50 48/182/50
f 48/182/50 36/170/50 30/172/46 49/185/46
f 49/196/46 30/163/46 29/160/43 55/192/43
f 55/192/43 29/160/43 21/11/5 41/10/5
f 96/4/1 39/3/1 44/176/53 99/247/53
f 99/247/53 44/176/53 54/180/57 100/250/57
f 100/261/57 54/193/57 53/190/62 107/257/62
f 107/257/62 53/190/62 41/10/5 97/9/5
f 78/32/11 136/31/11 150/313/83 86/231/83
f 86/231/83 150/313/83 144/317/121 87/234/86
f 87/245/86 144/306/121 143/303/118 93/241/90
f 93/241/90 143/303/118 135/34/12 79/33/12
f 136/31/11 60/30/11 74/217/76 148/311/76
f 148/311/76 74/217/76 68/221/73 149/314/116
f 149/301/116 68/210/73 67/207/70 139/297/70
f 139/297/70 67/207/70 59/6/2 134/5/2
f 115/26/10 98/25/10 112/265/100 118/271/100
f 118/271/100 112/265/100 106/269/97 119/274/97
f 119/285/97 106/258/97 105/255/95 126/281/95
f 126/281/95 105/255/95 97/9/5 116/12/5
f 22/15/8 154/14/405 157/905/406 34/168/48
f 34/168/48 157/905/406 156/906/407 35/158/41
f 35/158/41 156/906/407 155/907/408 25/154/37
f 25/154/37 155/907/408 153/8/409 20/22/9
f 58/198/10 159/23/10 162/893/410 61/199/64
f 61/199/64 162/893/410 161/908/411 62/202/66
f 62/213/66 161/909/411 160/910/412 69/209/72
f 69/209/72 160/910/412 158/7/413 59/6/2
f 98/25/10 164/24/10 167/897/34 110/263/34
f 110/263/34 167/897/34 166/898/30 111/266/30
f 111/253/30 166/899/30 165/900/27 101/249/27
f 101/249/27 165/900/27 163/1/1 96/4/1
f 79/33/12 169/13/414 172/911/415 91/239/88
f 91/239/88 172/911/415 171/912/416 92/242/81
f 92/229/81 171/913/416 170/904/417 82/225/78
f 82/225/78 170/904/417 168/2/1 77/28/1
f 230/17/8 174/20/8 184/329/134 233/389/134
f 233/389/134 184/329/134 177/333/127 234/392/127
f 234/403/127 177/322/127 176/319/124 241/399/175
f 241/399/175 176/319/124 173/61/11 231/64/11
f 326/40/418 306/39/2 311/487/213 329/914/419
f 329/914/419 311/487/213 321/491/217 328/915/420
f 328/916/420 321/504/217 320/501/222 327/917/421
f 327/917/421 320/501/222 308/66/15 325/50/422
f 331/41/423 288/56/9 298/471/208 334/918/424
f 334/918/424 298/471/208 291/475/203 333/919/425
f 333/920/425 291/464/203 290/461/201 332/921/426
f 332/921/426 290/461/201 287/57/8 330/18/8
f 336/35/1 175/59/1 189/337/139 339/922/139
f 339/922/139 189/337/139 183/341/135 338/923/135
f 338/924/135 183/330/135 182/327/132 337/925/132
f 337/925/132 182/327/132 174/20/8 335/19/8
f 341/38/1 211/37/1 216/367/157 344/926/427
f 344/926/427 216/367/157 226/371/160 343/927/428
f 343/928/428 226/384/160 225/381/165 342/929/429
f 342/929/429 225/381/165 213/48/10 340/47/430
f 175/59/1 249/60/1 254/415/137 187/335/137
f 187/335/137 254/415/137 264/419/130 188/338/130
f 188/325/130 264/432/130 263/429/126 178/321/126
f 178/321/126 263/429/126 251/62/11 173/61/11
f 194/45/5 289/44/5 303/479/153 206/357/153
f 206/357/153 303/479/153 297/483/146 207/360/146
f 207/349/146 297/472/146 296/469/142 197/345/142
f 197/345/142 296/469/142 288/56/9 192/55/9
f 212/46/5 194/45/5 208/359/155 220/373/155
f 220/373/155 208/359/155 202/363/151 221/376/163
f 221/387/163 202/354/151 201/351/148 227/383/148
f 227/383/148 201/351/148 193/49/10 213/48/10
f 270/43/5 212/46/5 222/375/62 282/453/62
f 282/453/62 222/375/62 215/379/57 283/456/57
f 283/443/57 215/368/57 214/365/53 273/439/53
f 273/439/53 214/365/53 211/37/1 268/36/1
f 250/65/15 308/66/15 322/503/187 258/421/187
f 258/421/187 322/503/187 316/507/220 259/424/190
f 259/435/190 316/496/220 315/493/193 265/431/193
f 265/431/193 315/493/193 307/63/11 251/62/11
f 306/39/2 232/42/2 246/407/180 309/485/211
f 309/485/211 246/407/180 240/411/176 310/488/214
f 310/499/214 240/400/176 239/397/173 317/495/173
f 317/495/173 239/397/173 231/64/11 307/63/11
f 289/44/5 270/43/5 284/455/43 301/477/43
f 301/477/43 284/455/43 278/459/46 302/480/46
f 302/467/46 278/448/46 277/445/50 292/463/50
f 292/463/50 277/445/50 269/58/8 287/57/8
f 192/55/9 326/40/418 329/930/419 195/343/140
f 195/343/140 329/930/419 328/931/420 196/346/143
f 196/346/143 328/931/420 327/932/421 203/353/150
f 203/353/150 327/932/421 325/50/422 193/49/10
f 232/42/2 331/41/423 334/933/424 244/405/178
f 244/405/178 334/933/424 333/934/425 245/408/171
f 245/395/171 333/935/425 332/921/426 235/391/168
f 235/391/168 332/921/426 330/18/8 230/17/8
f 268/36/1 336/35/1 339/922/139 271/437/139
f 271/437/139 339/922/139 338/923/135 272/440/135
f 272/451/135 338/924/135 337/925/132 279/447/132
f 279/447/132 337/925/132 335/19/8 269/58/8
f 249/60/1 341/38/1 344/926/427 252/413/181
f 252/413/181 344/926/427 343/936/428 253/416/183
f 253/427/183 343/937/428 342/938/429 260/423/189
f 260/423/189 342/938/429 340/47/430 250/65/15
f 402/51/10 346/54/10 356/519/233 405/579/233
f 405/579/233 356/519/233 349/523/227 406/582/227
f 406/593/227 349/512/227 348/509/224 413/589/266
f 413/589/266 348/509/224 345/93/11 403/96/11
f 498/72/431 478/71/16 483/677/304 501/939/432
f 501/939/432 483/677/304 493/681/308 500/940/433
f 500/941/433 493/694/308 492/691/313 499/942/434
f 499/942/434 492/691/313 480/98/12 497/82/435
f 503/73/436 460/88/1 470/661/299 506/943/437
f 506/943/437 470/661/299 463/665/294 505/944/438
f 505/945/438 463/654/294 462/651/292 504/946/439
f 504/946/439 462/651/292 459/89/10 502/52/10
f 508/67/9 347/91/9 361/527/140 511/947/140
f 511/947/140 361/527/140 355/531/143 510/948/143
f 510/949/143 355/520/143 354/517/150 509/950/150
f 509/950/150 354/517/150 346/54/10 507/53/10
f 513/70/9 383/69/9 388/557/248 516/951/440
f 516/951/440 388/557/248 398/561/251 515/952/441
f 515/953/441 398/574/251 397/571/256 514/954/442
f 514/954/442 397/571/256 385/80/8 512/79/443
f 347/91/9 421/92/9 426/605/235 359/525/235
f 359/525/235 426/605/235 436/609/230 360/528/230
f 360/515/230 436/622/230 435/619/226 350/511/226
f 350/511/226 435/619/226 423/94/11 345/93/11
f 366/77/5 461/76/5 475/669/62 378/547/62
f 378/547/62 475/669/62 469/673/57 379/550/57
f 379/539/57 469/662/57 468/659/53 369/535/53
f 369/535/53 468/659/53 460/88/1 364/87/1
f 384/78/5 366/77/5 380/549/246 392/563/246
f 392/563/246 380/549/246 374/553/243 393/566/254
f 393/577/254 374/544/243 373/541/241 399/573/241
f 399/573/241 373/541/241 365/81/8 385/80/8
f 442/75/5 384/78/5 394/565/153 454/643/153
f 454/643/153 394/565/153 387/569/146 455/646/146
f 455/633/146 387/558/146 386/555/142 445/629/142
f 445/629/142 386/555/142 383/69/9 440/68/9
f 422/97/12 480/98/12 494/693/278 430/611/278
f 430/611/278 494/693/278 488/697/311 431/614/281
f 431/625/281 488/686/311 487/683/284 437/621/284
f 437/621/284 487/683/284 479/95/11 423/94/11
f 478/71/16 404/74/16 418/597/271 481/675/302
f 481/675/302 418/597/271 412/601/267 482/678/305
f 482/689/305 412/590/267 411/587/264 489/685/264
f 489/685/264 411/587/264 403/96/11 479/95/11
f 461/76/5 442/75/5 456/645/95 473/667/95
f 473/667/95 456/645/95 450/649/97 474/670/97
f 474/657/97 450/638/97 449/635/100 464/653/100
f 464/653/100 449/635/100 441/90/10 459/89/10
f 364/87/1 498/72/431 501/955/432 367/533/139
f 367/533/139 501/955/432 500/956/433 368/536/135
f 368/536/135 500/956/433 499/957/434 375/543/132
f 375/543/132 499/957/434 497/82/435 365/81/8
f 404/74/16 503/73/436 506/958/437 416/595/269
f 416/595/269 506/958/437 505/959/438 417/598/262
f 417/585/262 505/960/438 504/946/439 407/581/259
f 407/581/259 504/946/439 502/52/10 402/51/10
f 440/68/9 508/67/9 511/947/140 443/627/140
f 443/627/140 511/947/140 510/948/143 444/630/143
f 444/641/143 510/949/143 509/950/150 451/637/150
f 451/637/150 509/950/150 507/53/10 441/90/10
f 421/92/9 513/70/9 516/951/440 424/603/272
f 424/603/272 516/951/440 515/961/441 425/606/274
f 425/617/274 515/962/441 514/963/442 432/613/280
f 432/613/280 514/963/442 512/79/443 422/97/12
f 576/122/11 517/121/11 522/701/317 588/785/317
f 588/785/317 522/701/317 532/705/321 589/788/321
f 589/775/321 532/718/321 531/715/326 579/771/326
f 579/771/326 531/715/326 519/84/8 574/83/8
f 670/112/444 651/126/15 661/875/401 673/964/445
f 673/964/445 661/875/401 654/879/394 672/965/446
f 672/966/446 654/868/394 653/865/392 671/967/447
f 671/967/447 653/865/392 650/103/16 669/106/448
f 675/86/8 631/118/8 636/843/383 678/968/449
f 678/968/449 636/843/383 646/847/386 677/969/450
f 677/970/450 646/860/386 645/857/390 676/971/451
f 676/971/451 645/857/390 633/115/1 674/105/452
f 680/85/8 519/84/8 533/717/48 683/972/48
f 683/972/48 533/717/48 527/721/41 682/973/41
f 682/974/41 527/710/41 526/707/37 681/975/37
f 681/975/37 526/707/37 518/119/9 679/99/9
f 685/111/453 556/114/10 566/755/345 688/976/454
f 688/976/454 566/755/345 559/759/340 687/977/455
f 687/978/455 559/748/340 558/745/338 686/979/456
f 686/979/456 558/745/338 555/101/9 684/100/9
f 517/121/11 594/124/11 604/803/369 520/699/315
f 520/699/315 604/803/369 597/807/318 521/702/318
f 521/713/318 597/796/318 596/793/324 528/709/324
f 528/709/324 596/793/324 593/120/9 518/119/9
f 536/116/1 633/115/1 647/859/328 539/723/328
f 539/723/328 647/859/328 641/863/330 540/726/330
f 540/737/330 641/852/330 640/849/335 547/733/335
f 547/733/335 640/849/335 632/110/5 537/109/5
f 556/114/10 538/113/10 552/741/100 564/753/100
f 564/753/100 552/741/100 546/743/97 565/756/97
f 565/767/97 546/734/97 545/731/95 571/763/95
f 571/763/95 545/731/95 537/109/5 557/108/5
f 612/102/9 555/101/9 560/747/142 615/817/142
f 615/817/142 560/747/142 570/751/146 616/820/146
f 616/831/146 570/764/146 569/761/153 623/827/153
f 623/827/153 569/761/153 557/108/5 613/107/5
f 594/124/11 652/123/11 666/883/367 602/801/367
f 602/801/367 666/883/367 660/887/402 603/804/370
f 603/815/370 660/876/402 659/873/399 609/811/374
f 609/811/374 659/873/399 651/126/15 595/125/15
f 652/123/11 576/122/11 590/787/360 664/881/360
f 664/881/360 590/787/360 584/791/357 665/884/397
f 665/871/397 584/780/357 583/777/354 655/867/354
f 655/867/354 583/777/354 575/104/16 650/103/16
f 631/118/8 614/117/8 628/835/50 634/841/50
f 634/841/50 628/835/50 622/839/46 635/844/46
f 635/855/46 622/828/46 621/825/43 642/851/43
f 642/851/43 621/825/43 613/107/5 632/110/5
f 538/113/10 670/112/444 673/980/445 550/739/34
f 550/739/34 673/980/445 672/981/446 551/729/30
f 551/729/30 672/981/446 671/982/447 541/725/27
f 541/725/27 671/982/447 669/106/448 536/116/1
f 574/83/8 675/86/8 678/968/449 577/769/348
f 577/769/348 678/968/449 677/983/450 578/772/350
f 578/783/350 677/984/450 676/985/451 585/779/356
f 585/779/356 676/985/451 674/105/452 575/104/16
f 614/117/8 680/85/8 683/972/48 626/833/48
f 626/833/48 683/972/48 682/973/41 627/836/41
f 627/823/41 682/974/41 681/975/37 617/819/37
f 617/819/37 681/975/37 679/99/9 612/102/9
f 595/125/15 685/111/453 688/986/454 607/809/372
f 607/809/372 688/986/454 687/987/455 608/812/365
f 608/799/365 687/988/455 686/979/456 598/795/362
f 598/795/362 686/979/456 684/100/9 593/120/9
f 58/198/10 3/143/10 164/24/10 159/23/10
